<svg xmlns="http://www.w3.org/2000/svg" width="565" height="240" viewBox="0 0 565 240" fill="none"><g clip-path="url(#clip0)"><path opacity="0.15" d="M299.071 239.545C171.169 239.545 67.4831 237.669 67.4831 235.357C67.4831 233.046 171.169 231.169 299.071 231.169C426.974 231.169 530.66 233.046 530.66 235.357C530.66 237.669 426.974 239.545 299.071 239.545Z" fill="black"></path><path opacity="0.1" d="M178.972 134.346C178.972 134.346 153.142 174.022 163.988 209.409H203.086C203.086 209.409 210.071 208.965 210.858 200.623C210.858 200.623 210.08 183.579 211.939 177.448C211.939 177.448 215.365 143.903 245.048 136.767C245.048 136.767 275.586 128.065 289.146 157.706C289.146 157.706 298.485 172.121 295.453 203.664C295.453 203.664 296.383 207.776 299.976 208.79H451.576C451.576 208.79 457.155 207.424 457.289 201.829C457.289 201.829 455.572 169.407 469.852 153.569C469.852 153.569 493.111 122.026 524.797 143.149C524.797 143.149 544.128 158.175 541.238 192.047L552.353 183.16C552.353 183.16 558.442 172.163 558.584 162.748C558.584 162.748 559.422 159.323 559.296 149.046L558.668 119.974C558.668 119.974 545.845 124.429 533.834 113.106L483.697 110.107C483.697 110.107 304.65 109.873 245.735 116.808C245.727 116.791 199.777 139.187 178.972 134.346Z" fill="url(#paint0_linear)"></path><path d="M541.724 190.33C541.724 215.348 521.103 235.19 495.582 235.19C470.061 235.19 449.29 215.348 449.29 190.33C449.29 165.311 483.069 131.808 508.59 131.808C534.11 131.808 541.724 165.303 541.724 190.33Z" fill="#0F0F0F"></path><path d="M290.738 155.788L290.436 208.79H303.837L300.797 178.001L295.302 154.113L290.738 155.788Z" fill="#0F0F0F"></path><path d="M421.357 188.822C421.357 213.949 401.64 236.664 375.382 234.31C346.017 231.672 329.417 213.941 329.417 188.822C329.417 163.703 363.012 130.024 388.407 130.024C413.802 130.024 421.357 163.695 421.357 188.822Z" fill="#0F0F0F"></path><path d="M149.314 188.948C149.314 214.51 127.135 237.77 97.6356 235.223C69.1582 232.778 45.9659 214.51 45.9659 188.948C45.9659 163.385 83.7654 129.187 112.243 129.187C140.72 129.187 149.314 163.393 149.314 188.948Z" fill="#0F0F0F"></path><path d="M295.503 190.33C295.503 215.348 272.889 235.19 244.881 235.19C216.872 235.19 194.099 215.348 194.099 190.33C194.099 165.311 231.178 131.842 259.161 131.842C287.144 131.842 295.503 165.353 295.503 190.33Z" fill="#0F0F0F"></path><path d="M180.187 56.7538L122.394 86.3535C122.394 86.3535 48.5875 99.1013 18.3596 117.788C18.3596 117.788 1.4574 126.381 0.862732 149.213V201.427C0.867188 203.543 1.71124 205.57 3.20953 207.064C4.70776 208.557 6.73761 209.395 8.85315 209.393H202.566C204.907 209.39 207.151 208.46 208.806 206.805C210.461 205.149 211.392 202.905 211.394 200.565V187.557C211.304 176.791 214.107 166.198 219.511 156.885C225.993 145.997 237.334 135.108 256.757 135.578C258.525 135.871 300.746 133.249 296.039 202.717C295.927 204.097 296.316 205.472 297.137 206.588C297.957 207.703 299.153 208.485 300.504 208.79H450.814C451.732 208.791 452.641 208.611 453.489 208.261C454.337 207.91 455.107 207.395 455.756 206.746C456.408 206.099 456.924 205.327 457.272 204.476C457.622 203.629 457.802 202.721 457.799 201.804V191.318C457.799 191.318 459.282 140.318 501.68 136.164C501.68 136.164 543.198 129.941 541.121 192.507L552.847 183.118C555.845 177.414 558.299 173.277 561.365 167.028C564.976 159.712 565.933 151.369 564.07 143.426L558.668 120.535C558.526 115.702 558.852 115.308 557.043 111.079C555.528 107.557 553.169 104.464 550.174 102.071C547.18 99.678 543.642 98.0598 539.873 97.3592C534.286 96.3038 527.77 94.4863 522.753 91.3705C521.446 90.7424 495.289 71.5536 470.355 56.4187C453.672 46.3024 434.584 40.8392 415.075 40.597C372.92 40.0777 289.155 39.3658 240.55 41.0326C219.518 41.7745 198.908 47.1422 180.187 56.7538Z" fill="url(#paint1_linear)"></path><path opacity="0.31" d="M464.408 109.186C464.408 109.186 552.939 112.93 559.506 119.974C559.506 119.974 565.419 162.958 552.805 183.101C552.805 183.101 544.815 189.693 541.665 192.03C542.838 181.669 541.129 166.308 534.127 154.054C530.936 148.476 526.338 143.308 520.726 140.167C512.71 135.67 501.588 133.919 487.106 139.975C475.681 145.117 459.952 156.961 451.978 208.656L303.728 208.798C303.728 208.798 319.642 137.462 264.79 126.85C264.79 126.85 212.266 118.114 198.437 190.748L196.896 203.865C196.68 205.694 196.643 207.54 196.787 209.376H144.02C144.02 209.376 122.428 168.26 160.989 137.948C160.989 137.948 194.844 122.47 214.175 118.684C233.506 114.898 439.859 107.586 464.408 109.186Z" fill="url(#paint2_linear)"></path><path d="M296.039 184.609C296.039 210.741 279.749 231.923 259.647 231.923C239.545 231.923 220.884 209.996 220.884 183.863C220.884 157.731 239.554 137.295 259.655 137.295C279.757 137.295 296.039 158.502 296.039 184.609Z" fill="#2B2B2B"></path><path d="M259.831 218.003C245.701 218.003 234.243 203.128 234.243 184.785C234.243 166.442 245.701 151.6 259.831 151.6C273.961 151.6 285.419 166.476 285.419 184.818C285.419 203.161 273.961 218.003 259.831 218.003Z" fill="#DDDDDD"></path><path d="M542.185 184.6C542.185 210.733 525.894 231.923 505.792 231.923C485.69 231.923 467.004 209.987 467.004 183.855C467.004 157.723 485.665 137.286 505.767 137.286C525.869 137.286 542.185 158.502 542.185 184.6Z" fill="#2B2B2B"></path><path d="M505.181 217.165C491.051 217.165 479.593 202.29 479.593 183.947C479.593 165.604 491.051 150.763 505.181 150.763C519.311 150.763 530.769 165.638 530.769 183.981C530.769 202.324 519.311 217.165 505.181 217.165Z" fill="#DDDDDD"></path><path d="M326.292 39.1732L265.703 86.1609L122.403 86.3536C122.403 86.3536 182.649 47.6662 223.966 41.8116L233.532 40.6222C233.925 40.572 242.435 40.061 242.829 40.0527L272.537 39.4664L326.292 39.1732Z" fill="#191919"></path><path d="M265.736 86.1609C265.736 86.1609 453.092 87.8361 514.922 86.0018C502.082 76.6126 473.043 56.7957 468.596 54.5761C468.596 54.5761 444.155 39.4999 417.001 39.8181L326.292 39.1732L265.736 86.1609Z" fill="#2B2B2B"></path><path d="M17.5974 135.779L8.9034 147.295C7.88802 148.598 7.33664 150.203 7.33664 151.856C7.33664 153.508 7.88802 155.113 8.9034 156.416L11.7763 160.236C12.7183 161.424 13.9222 162.378 15.2941 163.025C16.6656 163.671 18.1669 163.995 19.6829 163.971H112.436C114.799 163.986 117.095 163.185 118.935 161.701L123.215 158.15C124.069 157.5 124.774 156.674 125.284 155.729C125.781 154.78 126.066 153.734 126.121 152.664C126.195 151.594 126.04 150.521 125.669 149.515C125.292 148.508 124.703 147.595 123.944 146.834L112.452 134.757C111.499 133.793 110.36 133.032 109.105 132.519C107.85 132.007 106.504 131.754 105.149 131.775L25.437 132.06C23.926 132.033 22.429 132.354 21.0622 132.999C19.6954 133.644 18.4955 134.595 17.5555 135.779H17.5974Z" fill="white"></path><path d="M131.825 143.225C132.62 144.016 133.566 144.64 134.606 145.059C135.651 145.47 136.767 145.669 137.889 145.645L207.408 143.911C209.378 143.859 211.267 143.108 212.735 141.792L220.759 134.598C221.603 133.838 222.284 132.915 222.76 131.884C223.476 130.327 223.689 128.586 223.371 126.902C223.053 125.218 222.219 123.675 220.985 122.486L219.552 121.096C218.651 120.225 217.564 119.569 216.373 119.179C215.182 118.789 213.918 118.674 212.676 118.843L136.516 129.187C135.375 129.347 134.28 129.744 133.301 130.351C132.322 130.958 131.481 131.762 130.83 132.712C130.179 133.663 129.733 134.738 129.521 135.87C129.309 137.003 129.335 138.166 129.597 139.288C129.965 140.78 130.736 142.142 131.825 143.225Z" fill="white"></path><path d="M10.8968 122.486C10.8968 122.486 11.9689 133.09 0.226171 146.575C0.251298 146.575 -2.54619 134.891 10.8968 122.486Z" fill="white"></path><path opacity="0.31" d="M185.111 86.4707C185.111 86.4707 106.522 116.749 97.9204 131.7C97.9204 131.7 150.361 128.425 214.2 118.726C214.2 118.726 249.638 105.224 265.719 86.1944C265.728 86.1608 192.809 86.0017 185.111 86.4707Z" fill="url(#paint3_linear)"></path><path opacity="0.51" d="M0.845856 173.461L117.059 174.123C119.195 174.124 121.249 174.952 122.788 176.434C125.468 179.006 130.477 183.972 138.492 192.591C138.748 192.868 138.917 193.215 138.978 193.588C139.039 193.959 138.993 194.34 138.844 194.685C138.69 195.025 138.443 195.315 138.132 195.523C137.816 195.73 137.446 195.841 137.068 195.841L0.845856 195.405V173.461Z" fill="url(#paint4_linear)"></path><path opacity="0.31" d="M196.837 209.393H203.622C203.622 209.393 211.327 208.228 211.428 200.104V185.304C211.428 185.304 211.428 164.934 223.992 150.47C223.992 150.47 237.183 131.256 263.156 136.231C289.129 141.206 293.77 166.383 295.562 176.979C295.562 176.979 297.237 195.556 295.989 203.68C295.989 203.68 296.676 208.027 300.504 208.815H451.585C453.128 208.578 454.559 207.865 455.676 206.775C456.794 205.684 457.542 204.271 457.816 202.734C457.816 202.734 456.761 178.981 461.3 172.858C461.3 172.858 468.051 138.869 502.995 136.005C502.995 136.005 531.815 132.654 540.476 170.203C540.476 170.203 543.742 184.031 541.741 192.055L552.88 183.126C552.88 183.126 547.855 126.708 503.522 127.847C459.19 128.986 449.683 173.553 446.735 189.073L446.09 198.228H305.613C305.613 198.228 312.012 145.461 276.75 130.385C267.25 126.389 256.702 125.621 246.723 128.199C208.496 137.856 196.988 182.255 196.837 209.393Z" fill="url(#paint5_linear)"></path><path d="M246.422 40.6222C246.824 40.572 255.325 40.061 255.727 40.0527L285.436 39.4664L326.234 39.2486L326.326 39.1732L272.537 39.4664L242.829 40.0527C242.426 40.0527 233.925 40.572 233.531 40.6222L223.966 41.8116C182.649 47.6746 122.436 86.3536 122.436 86.3536H135.326C135.913 85.9767 195.715 47.6578 236.832 41.8283L246.422 40.6222Z" fill="#191919"></path><path d="M319.407 44.5001L281.39 43.8049L248.532 44.073C246.212 44.1735 236.455 44.8016 236.052 44.8519L227.04 45.7648C185.924 51.6278 135.946 85.9682 135.36 86.3368L265.736 86.1609L319.407 44.5001Z" fill="#0F0F0F"></path><path d="M503.187 86.2697C491.662 76.8806 467.373 59.7522 463.352 57.5327C463.352 57.5327 441.5 44.1986 417.219 44.5168H332.817L281.725 86.2865C281.725 86.2865 350.406 86.8309 414.388 86.8393H416.532C451.635 86.8477 483.705 86.8895 503.187 86.2697Z" fill="#0F0F0F"></path><path d="M332.381 88.4977L310.923 90.4576C305.722 90.9434 301.324 86.2698 301.475 80.4068C301.626 74.5438 306.274 70.1298 311.442 70.892L332.758 74.0161C336.042 74.4936 338.462 77.6763 338.362 81.3868C338.261 85.0972 335.681 88.1962 332.381 88.4977Z" fill="url(#paint6_linear)"></path><path d="M298.493 94.0089L308.971 86.0017C309.307 85.7007 309.529 85.293 309.599 84.8474C309.669 84.4019 309.584 83.9458 309.357 83.556C309.173 83.1219 308.835 82.7704 308.409 82.5682C307.983 82.3659 307.498 82.327 307.045 82.4588L294.783 87.1576C292.965 87.8528 292.27 90.2147 293.326 92.2668C294.414 94.4528 296.869 95.2737 298.493 94.0089Z" fill="url(#paint7_linear)"></path><path opacity="0.1" d="M215.44 117.829C215.44 117.829 426.29 104.897 484.828 110.057L480.162 119.387L215.44 117.829Z" fill="url(#paint8_linear)"></path><path opacity="0.51" d="M305.881 187.792L445.855 198.027L305.353 198.085L305.881 187.792Z" fill="url(#paint9_linear)"></path></g><defs><linearGradient id="paint0_linear" x1="161.333" y1="159.758" x2="559.313" y2="159.758" gradientUnits="userSpaceOnUse"><stop offset="0.2" stop-color="#929497"></stop><stop offset="0.35" stop-color="#A4A6A9"></stop><stop offset="0.66" stop-color="#D4D5D6"></stop><stop offset="0.9" stop-color="white"></stop></linearGradient><linearGradient id="paint1_linear" x1="565" y1="124.697" x2="0.862716" y2="124.697" gradientUnits="userSpaceOnUse"><stop offset="0.02" stop-color="white"></stop><stop offset="1" stop-color="#D0D2D3"></stop></linearGradient><linearGradient id="paint2_linear" x1="137.998" y1="159.172" x2="560.888" y2="159.172" gradientUnits="userSpaceOnUse"><stop offset="0.14" stop-color="#929497"></stop><stop offset="0.31" stop-color="#96989B"></stop><stop offset="0.48" stop-color="#A1A3A5"></stop><stop offset="0.64" stop-color="#B4B6B8"></stop><stop offset="0.79" stop-color="#CFD0D1"></stop><stop offset="0.95" stop-color="#F1F1F2"></stop><stop offset="1" stop-color="white"></stop></linearGradient><linearGradient id="paint3_linear" x1="-3.8923e+07" y1="7236.98" x2="-4.63636e+07" y2="7236.98" gradientUnits="userSpaceOnUse"><stop offset="0.14" stop-color="#929497"></stop><stop offset="0.31" stop-color="#96989B"></stop><stop offset="0.48" stop-color="#A1A3A5"></stop><stop offset="0.64" stop-color="#B4B6B8"></stop><stop offset="0.79" stop-color="#CFD0D1"></stop><stop offset="0.95" stop-color="#F1F1F2"></stop><stop offset="1" stop-color="white"></stop></linearGradient><linearGradient id="paint4_linear" x1="0.845856" y1="184.659" x2="139.003" y2="184.659" gradientUnits="userSpaceOnUse"><stop stop-color="white" stop-opacity="0"></stop><stop offset="0.04" stop-color="white" stop-opacity="0.13"></stop><stop offset="0.1" stop-color="white" stop-opacity="0.31"></stop><stop offset="0.16" stop-color="white" stop-opacity="0.48"></stop><stop offset="0.23" stop-color="white" stop-opacity="0.62"></stop><stop offset="0.31" stop-color="white" stop-opacity="0.74"></stop><stop offset="0.39" stop-color="white" stop-opacity="0.83"></stop><stop offset="0.48" stop-color="white" stop-opacity="0.91"></stop><stop offset="0.59" stop-color="white" stop-opacity="0.96"></stop><stop offset="0.73" stop-color="white" stop-opacity="0.99"></stop><stop offset="1" stop-color="white"></stop></linearGradient><linearGradient id="paint5_linear" x1="-1.31584e+07" y1="7269.52" x2="-7.74915e+07" y2="7269.52" gradientUnits="userSpaceOnUse"><stop offset="0.14" stop-color="#929497"></stop><stop offset="0.31" stop-color="#96989B"></stop><stop offset="0.48" stop-color="#A1A3A5"></stop><stop offset="0.64" stop-color="#B4B6B8"></stop><stop offset="0.79" stop-color="#CFD0D1"></stop><stop offset="0.95" stop-color="#F1F1F2"></stop><stop offset="1" stop-color="white"></stop></linearGradient><linearGradient id="paint6_linear" x1="338.362" y1="80.6832" x2="301.475" y2="80.6832" gradientUnits="userSpaceOnUse"><stop offset="0.02" stop-color="white"></stop><stop offset="0.09" stop-color="#F0F0F0"></stop><stop offset="0.26" stop-color="#CECFD0"></stop><stop offset="0.43" stop-color="#B4B5B7"></stop><stop offset="0.61" stop-color="#A1A3A5"></stop><stop offset="0.8" stop-color="#96989B"></stop><stop offset="1" stop-color="#929497"></stop></linearGradient><linearGradient id="paint7_linear" x1="-131837" y1="2299.07" x2="-138576" y2="2299.07" gradientUnits="userSpaceOnUse"><stop offset="0.02" stop-color="white"></stop><stop offset="0.09" stop-color="#F0F0F0"></stop><stop offset="0.26" stop-color="#CECFD0"></stop><stop offset="0.43" stop-color="#B4B5B7"></stop><stop offset="0.61" stop-color="#A1A3A5"></stop><stop offset="0.8" stop-color="#96989B"></stop><stop offset="1" stop-color="#929497"></stop></linearGradient><linearGradient id="paint8_linear" x1="215.44" y1="114.111" x2="484.828" y2="114.111" gradientUnits="userSpaceOnUse"><stop offset="0.02" stop-color="white"></stop><stop offset="0.11" stop-color="#F0F1F1"></stop><stop offset="0.38" stop-color="#C8C9CA"></stop><stop offset="0.63" stop-color="#AAACAE"></stop><stop offset="0.85" stop-color="#989A9D"></stop><stop offset="1" stop-color="#929497"></stop></linearGradient><linearGradient id="paint9_linear" x1="-3.36229e+07" y1="770.833" x2="-3.75758e+07" y2="770.833" gradientUnits="userSpaceOnUse"><stop stop-color="white" stop-opacity="0"></stop><stop offset="0.04" stop-color="white" stop-opacity="0.13"></stop><stop offset="0.1" stop-color="white" stop-opacity="0.31"></stop><stop offset="0.16" stop-color="white" stop-opacity="0.48"></stop><stop offset="0.23" stop-color="white" stop-opacity="0.62"></stop><stop offset="0.31" stop-color="white" stop-opacity="0.74"></stop><stop offset="0.39" stop-color="white" stop-opacity="0.83"></stop><stop offset="0.48" stop-color="white" stop-opacity="0.91"></stop><stop offset="0.59" stop-color="white" stop-opacity="0.96"></stop><stop offset="0.73" stop-color="white" stop-opacity="0.99"></stop><stop offset="1" stop-color="white"></stop></linearGradient><clipPath id="clip0"><rect width="565" height="239.545" fill="white" transform="matrix(-1 0 0 1 565 0)"></rect></clipPath></defs></svg>