<svg xmlns="http://www.w3.org/2000/svg" width="92" height="90" viewBox="0 0 92 90" fill="none"><path d="M81.125 0H10C4.47715 0 0 4.47715 0 10V80C0 85.5229 4.47715 90 10 90H81.125C86.6479 90 91.125 85.5229 91.125 80V10C91.125 4.47715 86.6479 0 81.125 0Z" fill="black"></path><path d="M21.9049 68.625C21.1334 68.625 20.5048 67.9444 20.5048 67.1095V57.2093C20.5048 56.3125 20.3047 55.508 19.7904 54.8584C19.3046 54.2706 18.6474 53.961 17.7902 53.961C16.0758 53.961 14.9328 55.137 14.9328 57.1783V67.1095C14.9328 67.9444 14.3042 68.625 13.5327 68.625H9.27515C8.50366 68.625 7.875 67.9444 7.875 67.1095V49.0115C7.875 48.176 8.50366 47.4954 9.27515 47.4954H13.5041C14.2756 47.4954 14.9043 48.176 14.9043 49.0115V50.125H14.9328C16.3615 48.0522 18.5903 47.0625 20.619 47.0625C25.8481 47.0625 27.5625 51.7339 27.5625 55.8177V67.1095C27.5625 67.9444 26.9339 68.625 26.1624 68.625H21.9049Z" fill="#7350FC"></path><path d="M33.5335 50.0822C35.4233 48.2097 38.0419 47.0625 40.7686 47.0625C43.4682 47.0625 46.0866 48.1795 47.9494 50.0216C49.7855 51.8341 51 54.6728 51 57.6924C51 60.7732 49.7855 63.6118 47.9228 65.5448C46.0329 67.4469 43.4142 68.625 40.6336 68.625C37.8799 68.625 35.2613 67.5075 33.3986 65.635C31.5628 63.7626 30.375 60.9542 30.375 57.874C30.375 54.7932 31.6168 51.9546 33.5335 50.0822ZM37.0701 57.753C37.0701 58.9007 37.421 59.8669 38.1229 60.7127C38.7978 61.5886 39.7157 62.0112 40.6876 62.0112C41.7134 62.0112 42.5773 61.5886 43.2792 60.7127C43.9541 59.8972 44.3051 58.931 44.3051 57.753C44.3051 56.6354 43.9541 55.6692 43.2792 54.8538C42.5503 54.0383 41.6865 53.6158 40.6876 53.6158C39.6887 53.6158 38.7978 54.0383 38.0959 54.8538C37.421 55.6692 37.0701 56.6354 37.0701 57.753Z" fill="#7350FC"></path><path d="M55.8492 67.5534L50.1341 49.0802C49.8312 48.103 50.5267 47.0625 51.5251 47.0625H55.819C56.4842 47.0625 57.0591 47.5038 57.2403 48.1658L60.1739 58.6322H60.2036L63.5304 48.1347C63.7419 47.5038 64.2866 47.0942 64.9215 47.0942H68.913C69.548 47.0942 70.1229 47.5038 70.3041 48.1347L73.7212 58.7267H73.7515L76.9268 48.1658C77.108 47.5355 77.6829 47.0942 78.3179 47.0942H82.3397C83.3375 47.0942 84.0634 48.103 83.7307 49.1119L77.9853 67.5534C77.7738 68.1837 77.2292 68.625 76.5942 68.625H71.6346C70.9996 68.625 70.4252 68.1837 70.2435 67.5534L66.9476 57.0876H66.9173L63.5304 67.5534C63.3184 68.1837 62.7743 68.5933 62.1394 68.5933H57.2706C56.6054 68.5933 56.0607 68.1837 55.8492 67.5534Z" fill="#7350FC"></path><path d="M22.4944 40.5C22.3558 40.2985 22.2369 40.1373 22.1181 39.956C21.5635 39.0694 20.9892 38.2029 20.4346 37.2962C19.8998 36.4096 19.3651 35.5028 18.8501 34.5961C18.4144 33.8304 17.9985 33.0446 17.6024 32.2587C17.2261 31.493 16.8696 30.7273 16.5329 29.9415C16.2754 29.3571 16.0576 28.7527 15.8595 28.1481C15.4237 26.8182 15.2257 25.4682 15.503 24.0779C15.7802 22.6069 16.4536 21.3375 17.4835 20.2695C18.1767 19.5442 19.0086 19.0001 19.9196 18.5971C20.5336 18.3351 21.1674 18.1739 21.821 18.0732C22.5736 17.9725 23.3064 17.9725 24.0392 18.0933C24.7324 18.1941 25.386 18.3956 26.0198 18.6978C27.1289 19.2016 28.0598 19.9471 28.8124 20.9143C29.3274 21.5793 29.7235 22.3248 30.0008 23.1308C30.3771 24.2592 30.4563 25.3876 30.2979 26.5563C30.1988 27.322 29.9414 28.0675 29.6641 28.7728C29.2283 29.9012 28.6738 30.9691 28.0796 32.0169C27.5251 32.9841 26.9507 33.9311 26.3565 34.8782C25.7623 35.8252 25.1286 36.7521 24.4948 37.679C23.861 38.5858 23.2074 39.4925 22.5538 40.3993C22.5538 40.4597 22.534 40.4597 22.4944 40.5ZM18.2163 24.8839C18.1965 25.9719 18.3748 26.7175 18.7709 27.4026C19.484 28.6922 20.5534 29.4579 21.9596 29.7802C23.0688 30.0221 24.1383 29.8609 25.1484 29.337C26.3367 28.7123 27.1289 27.7452 27.4854 26.4354C27.8419 25.1055 27.6241 23.8562 26.8715 22.7278C26.1585 21.6599 25.1484 20.9949 23.9204 20.7128C22.8113 20.471 21.722 20.6121 20.7119 21.1561C19.1472 22.0024 18.3154 23.3525 18.2163 24.8839Z" fill="#7350FC"></path><path d="M15.8012 44.25C15.6504 44.0429 15.5183 43.8737 15.3863 43.6857C14.7639 42.7832 14.1415 41.8807 13.538 40.9594C12.9345 40.0381 12.3687 39.1168 11.8029 38.1767C11.3314 37.387 10.8598 36.5974 10.4072 35.7701C9.99227 34.9992 9.5962 34.1907 9.21898 33.3822C8.93609 32.7806 8.69092 32.1601 8.46461 31.5396C7.95536 30.1671 7.72905 28.7757 7.97422 27.3092C8.23825 25.7674 8.91722 24.4325 9.99227 23.2855C10.7278 22.5147 11.5765 21.9318 12.5384 21.4994C13.1796 21.2173 13.8397 21.0293 14.5376 20.9165C15.3297 20.7849 16.1218 20.7849 16.8951 20.8789C17.6307 20.9729 18.3285 21.1609 19.0263 21.4618C20.2145 21.9694 21.2141 22.7027 22.044 23.6992C22.6097 24.3761 23.0436 25.147 23.3642 25.993C23.7791 27.1588 23.8922 28.3433 23.7603 29.5466C23.6848 30.3551 23.4208 31.126 23.1379 31.878C22.7041 33.0814 22.1571 34.2095 21.5536 35.3188C20.9878 36.3342 20.4031 37.3495 19.7996 38.346C19.1772 39.3425 18.5548 40.339 17.8947 41.2979C17.2535 42.2568 16.5556 43.2157 15.8955 44.1747C15.8578 44.1934 15.8389 44.2121 15.8012 44.25ZM10.8976 28.1177C10.8976 29.2458 11.1239 30.0167 11.5388 30.7312C12.3121 32.0473 13.4814 32.8369 14.9714 33.119C16.1596 33.3446 17.2912 33.1566 18.3473 32.5737C19.5922 31.8968 20.4031 30.8627 20.7615 29.509C21.101 28.1365 20.8558 26.8391 20.0259 25.6734C19.2527 24.5641 18.1588 23.906 16.8385 23.6616C15.6504 23.436 14.4999 23.6052 13.4437 24.2068C11.8029 25.1094 10.9541 26.5195 10.8976 28.1177Z" fill="white"></path><path d="M42.2154 39.6769C41.8825 39.6769 41.6051 39.4094 41.6051 39.0883V33.1488C41.6051 32.6315 41.4756 32.1856 41.1427 31.811C40.8283 31.4721 40.4028 31.2938 39.8665 31.2938C38.7752 31.2938 38.0354 31.9715 38.0354 33.1309V39.0705C38.0354 39.3916 37.7579 39.6591 37.425 39.6591H34.1143C33.7813 39.6591 33.5039 39.3916 33.5039 39.0705V28.208C33.5039 27.887 33.7813 27.6194 34.1143 27.6194H37.4065C37.7395 27.6194 38.0169 27.887 38.0169 28.208V29.1356H38.0354C38.9602 27.9405 40.3844 27.3876 41.6976 27.3876C45.0453 27.3876 46.1366 30.063 46.1366 32.3818V39.1061C46.1366 39.4272 45.8591 39.6948 45.5262 39.6948H42.2154V39.6769Z" fill="white"></path><path d="M51.7223 34.7361C51.8518 35.3247 52.1477 35.7885 52.6471 36.0916C53.1095 36.4305 53.6644 36.609 54.3117 36.609C55.107 36.609 55.8099 36.2701 56.3093 35.6992C56.4572 35.5209 56.7162 35.4674 56.9566 35.5387L59.583 36.4127C59.9529 36.5376 60.1009 36.9656 59.8975 37.2867C58.7323 39.1061 56.6791 39.9622 54.2007 39.9622C52.9801 39.9622 51.8333 39.6947 50.779 39.1417C49.7247 38.6066 48.8925 37.8575 48.2821 36.8765C47.6348 35.9133 47.3387 34.8431 47.3387 33.6302C47.3387 32.4887 47.6532 31.4185 48.2636 30.4553C48.8739 29.51 49.7247 28.7252 50.742 28.1723C51.7962 27.6372 52.906 27.3696 54.1082 27.3696C55.3105 27.3696 56.4017 27.6372 57.4005 28.1723C58.3993 28.6895 59.1946 29.403 59.7494 30.3483C60.3044 31.2937 60.6003 32.346 60.6003 33.4875V33.5054C60.6003 34.201 60.0269 34.7539 59.3056 34.7539H51.7223V34.7361ZM52.5916 31.1153C52.1477 31.4542 51.9072 31.8644 51.7778 32.346H55.8653C56.0318 32.346 56.1612 32.1855 56.1243 32.0428C55.8653 31.151 55.07 30.6337 54.0158 30.6337C53.5164 30.6337 53.017 30.7942 52.5916 31.1153Z" fill="white"></path><path d="M65.964 37.1263L64.2994 39.4451C64.1884 39.6056 64.0035 39.6948 63.8 39.6948H60.3228C59.8234 39.6948 59.546 39.1418 59.8419 38.7673L63.5781 33.9514C63.7446 33.7374 63.7446 33.452 63.5781 33.2558L59.9159 28.5648C59.62 28.1724 59.8974 27.6195 60.3968 27.6195H63.9295C64.133 27.6195 64.3179 27.7087 64.4289 27.8692L66.0565 30.0988C66.297 30.4377 66.8149 30.4377 67.0553 30.0988L68.683 27.8692C68.7939 27.7087 68.9789 27.6195 69.1823 27.6195H72.6225C73.1219 27.6195 73.3993 28.1724 73.1034 28.5648L69.4227 33.2737C69.2563 33.4877 69.2563 33.7731 69.4227 33.9872L73.1775 38.7673C73.4734 39.1598 73.1959 39.7126 72.6965 39.7126H69.1268C68.9233 39.7126 68.7384 39.6234 68.6274 39.4629L66.9628 37.1442C66.7224 36.7874 66.2045 36.7874 65.964 37.1263Z" fill="white"></path><path d="M83.646 39.1596C83.646 39.3915 83.4981 39.6054 83.2761 39.659C82.7028 39.8195 82.0184 39.8731 81.26 39.8731C79.7804 39.8731 78.5782 39.4806 77.6904 38.678C76.7656 37.8931 76.3402 36.7516 76.3402 35.3068V31.7217C76.3402 31.4363 76.0997 31.1866 75.7854 31.1866H74.4722C74.1762 31.1866 73.9172 30.9548 73.9172 30.6515V28.1544C73.9172 27.8691 74.1577 27.6193 74.4722 27.6193H75.8779C76.1738 27.6193 76.4327 27.3875 76.4327 27.0842V24.2304C76.4327 23.945 76.6732 23.6953 76.9875 23.6953H80.3168C80.6127 23.6953 80.8716 23.9272 80.8716 24.2304V27.0842C80.8716 27.3696 81.1121 27.6193 81.4266 27.6193H83.2576C83.5535 27.6193 83.8125 27.8512 83.8125 28.1544V30.6694C83.8125 30.9548 83.572 31.2045 83.2576 31.2045H81.4266C81.1306 31.2045 80.8716 31.4363 80.8716 31.7396V34.8966C80.8716 35.8242 81.4081 36.3058 82.4993 36.3058C82.6287 36.3058 82.8138 36.2878 83.0912 36.27C83.4056 36.2522 83.683 36.4841 83.683 36.8052V39.1596H83.646Z" fill="white"></path></svg>