<svg xmlns="http://www.w3.org/2000/svg" width="92" height="90" viewBox="0 0 92 90" fill="none"><path d="M81.125 0H10C4.47715 0 0 4.47715 0 10V80C0 85.5228 4.47715 90 10 90H81.125C86.6479 90 91.125 85.5228 91.125 80V10C91.125 4.47715 86.6479 0 81.125 0Z" fill="black"></path><path d="M23.5002 33.4795C23.032 33.4795 22.6419 33.0886 22.6419 32.6193V23.9396C22.6419 23.1837 22.4598 22.5321 21.9917 21.9847C21.5495 21.4895 20.9513 21.2288 20.1971 21.2288C18.6625 21.2288 17.6222 22.2193 17.6222 23.9135V32.5933C17.6222 33.0625 17.232 33.4535 16.7639 33.4535H12.1083C11.6401 33.4535 11.25 33.0625 11.25 32.5933V16.7195C11.25 16.2503 11.6401 15.8594 12.1083 15.8594H16.7379C17.206 15.8594 17.5962 16.2503 17.5962 16.7195V18.0749H17.6222C18.9226 16.3285 20.9253 15.5205 22.7719 15.5205C27.4795 15.5205 29.0141 19.4303 29.0141 22.8188V32.6454C29.0141 33.1146 28.624 33.5056 28.1558 33.5056H23.5002V33.4795Z" fill="white"></path><path d="M36.8688 26.2595C37.0509 27.1197 37.4669 27.7975 38.1692 28.2405C38.8195 28.7358 39.5997 28.9965 40.51 28.9965C41.6283 28.9965 42.6167 28.5012 43.319 27.6671C43.527 27.4065 43.8912 27.3282 44.2293 27.4325L47.9225 28.7097C48.4427 28.8922 48.6507 29.5177 48.3647 29.9869C46.7262 32.6456 43.839 33.8968 40.3539 33.8968C38.6374 33.8968 37.0249 33.5058 35.5422 32.6977C34.0598 31.9158 32.8895 30.8211 32.0311 29.3875C31.1208 27.9799 30.7046 26.4159 30.7046 24.6435C30.7046 22.9754 31.1468 21.4114 32.0051 20.0039C32.8633 18.6225 34.0598 17.4756 35.4903 16.6676C36.9727 15.8856 38.5333 15.4946 40.2238 15.4946C41.9145 15.4946 43.4489 15.8856 44.8534 16.6676C46.2579 17.4235 47.3763 18.4661 48.1565 19.8475C48.9369 21.229 49.353 22.7668 49.353 24.435V24.4611C49.353 25.4776 48.5468 26.2856 47.5324 26.2856H36.8688V26.2595ZM38.0912 20.9683C37.4669 21.4636 37.1288 22.0631 36.9468 22.7668H42.6947C42.9287 22.7668 43.1108 22.5322 43.0588 22.3237C42.6947 21.0205 41.5764 20.2646 40.0939 20.2646C39.3916 20.2646 38.6894 20.4992 38.0912 20.9683Z" fill="white"></path><path d="M56.8956 29.7523L54.5548 33.1408C54.3987 33.3753 54.1387 33.5057 53.8525 33.5057H48.9629C48.2606 33.5057 47.8705 32.6976 48.2866 32.1502L53.5405 25.1126C53.7745 24.7999 53.7745 24.3828 53.5405 24.0961L48.3907 17.2409C47.9746 16.6675 48.3647 15.8595 49.067 15.8595H54.0346C54.3207 15.8595 54.5808 15.9898 54.7368 16.2244L57.0256 19.4826C57.3638 19.9778 58.092 19.9778 58.4302 19.4826L60.719 16.2244C60.8749 15.9898 61.1351 15.8595 61.4211 15.8595H66.2587C66.961 15.8595 67.3511 16.6675 66.935 17.2409L61.7592 24.1222C61.5252 24.435 61.5252 24.852 61.7592 25.1649L67.0391 32.1502C67.4552 32.7238 67.0651 33.5317 66.3628 33.5317H61.3431C61.057 33.5317 60.7969 33.4014 60.6409 33.1668L58.3001 29.7783C57.9619 29.257 57.2337 29.257 56.8956 29.7523Z" fill="white"></path><path d="M81.76 32.7236C81.76 33.0625 81.552 33.3752 81.2399 33.4535C80.4337 33.688 79.4712 33.7663 78.4049 33.7663C76.3242 33.7663 74.6337 33.1927 73.3853 32.0199C72.0847 30.8729 71.4866 29.2048 71.4866 27.0934V21.8544C71.4866 21.4373 71.1484 21.0724 70.7064 21.0724H68.8598C68.4435 21.0724 68.0794 20.7336 68.0794 20.2905V16.6413C68.0794 16.2243 68.4175 15.8594 68.8598 15.8594H70.8364C71.2525 15.8594 71.6167 15.5205 71.6167 15.0774V10.907C71.6167 10.4899 71.9548 10.125 72.3969 10.125H77.0785C77.4946 10.125 77.8587 10.4638 77.8587 10.907V15.0774C77.8587 15.4944 78.1968 15.8594 78.639 15.8594H81.2139C81.63 15.8594 81.9941 16.1982 81.9941 16.6413V20.3165C81.9941 20.7336 81.656 21.0985 81.2139 21.0985H78.639C78.2228 21.0985 77.8587 21.4373 77.8587 21.8804V26.494C77.8587 27.8495 78.613 28.5532 80.1475 28.5532C80.3296 28.5532 80.5897 28.527 80.9798 28.501C81.4219 28.4749 81.812 28.8138 81.812 29.283V32.7236H81.76Z" fill="white"></path><path d="M24.7503 57.2842C24.0079 57.2842 23.403 56.678 23.403 55.9341V47.1165C23.403 46.3173 23.2105 45.6009 22.7156 45.0222C22.2482 44.4986 21.6158 44.2231 20.7909 44.2231C19.1412 44.2231 18.0414 45.2702 18.0414 47.0888V55.9341C18.0414 56.678 17.4365 57.2842 16.6941 57.2842H12.5973C11.8549 57.2842 11.25 56.678 11.25 55.9341V39.8143C11.25 39.0704 11.8549 38.4641 12.5973 38.4641H16.6666C17.409 38.4641 18.0139 39.0704 18.0139 39.8143V40.8063H18.0414C19.4161 38.9602 21.5608 38.0784 23.513 38.0784C28.5447 38.0784 30.1943 42.2392 30.1943 45.8764V55.9341C30.1943 56.678 29.5895 57.2842 28.8471 57.2842H24.7503Z" fill="white"></path><path d="M34.7313 40.8338C36.656 39.1255 39.3229 38.0784 42.1 38.0784C44.8496 38.0784 47.5165 39.0979 49.4138 40.7788C51.2834 42.4321 52.5207 45.0222 52.5207 47.7778C52.5207 50.5883 51.2834 53.1785 49.3863 54.9421C47.4616 56.678 44.7945 57.7526 41.9624 57.7526C39.158 57.7526 36.4909 56.7332 34.5938 55.0246C32.724 53.3163 31.5143 50.7537 31.5143 47.9431C31.5143 45.1324 32.7791 42.5422 34.7313 40.8338ZM38.333 47.8328C38.333 48.8799 38.6905 49.7617 39.4055 50.5333C40.0928 51.3323 41.0276 51.7181 42.0175 51.7181C43.0623 51.7181 43.9422 51.3323 44.657 50.5333C45.3445 49.7892 45.7018 48.9074 45.7018 47.8328C45.7018 46.8133 45.3445 45.9315 44.657 45.1876C43.9147 44.4436 43.0349 44.0578 42.0175 44.0578C41.0002 44.0578 40.0928 44.4436 39.378 45.1876C38.6905 45.9315 38.333 46.8133 38.333 47.8328Z" fill="white"></path><path d="M56.6998 56.3749L51.5032 40.2277C51.2283 39.3734 51.8607 38.4641 52.7681 38.4641H56.6724C57.2773 38.4641 57.7997 38.8499 57.9647 39.4285L60.6316 48.5768H60.6592L63.6837 39.401C63.8761 38.8499 64.371 38.4916 64.9485 38.4916H68.5779C69.1552 38.4916 69.6776 38.8499 69.8426 39.401L72.9496 48.6594H72.9772L75.8641 39.4285C76.0291 38.8774 76.5515 38.4916 77.129 38.4916H80.7858C81.6932 38.4916 82.3531 39.3734 82.0507 40.2552L76.8264 56.3749C76.634 56.926 76.1391 57.3117 75.5617 57.3117H71.0525C70.475 57.3117 69.9526 56.926 69.7877 56.3749L66.7907 47.2265H66.7632L63.6837 56.3749C63.4911 56.926 62.9963 57.2842 62.4189 57.2842H57.9921C57.3872 57.2842 56.8924 56.926 56.6998 56.3749Z" fill="white"></path><path d="M74.7422 61.9026H18.6328C14.5554 61.9026 11.25 65.2152 11.25 69.3014V70.9292C11.25 75.0154 14.5554 78.328 18.6328 78.328H74.7422C78.8196 78.328 82.125 75.0154 82.125 70.9292V69.3014C82.125 65.2152 78.8196 61.9026 74.7422 61.9026Z" fill="#7350FC"></path><path d="M24.9521 68.1057C25.4483 68.1057 25.8893 68.232 26.2751 68.4846C26.6689 68.7371 26.972 69.0961 27.1847 69.5618C27.4053 70.0195 27.5154 70.5484 27.5154 71.1481C27.5154 71.7479 27.4053 72.2727 27.1847 72.7226C26.972 73.1724 26.6729 73.5197 26.2869 73.7644C25.9011 74.009 25.4561 74.1313 24.9521 74.1313C24.5426 74.1313 24.1764 74.0445 23.8536 73.8709C23.5307 73.6973 23.2826 73.4566 23.1094 73.1488V75.5637C23.1094 75.769 23.0424 75.9307 22.9086 76.0491C22.7747 76.1675 22.5975 76.2267 22.377 76.2267C22.1565 76.2267 21.9754 76.1635 21.8336 76.0373C21.6997 75.911 21.6328 75.7453 21.6328 75.5401V68.8279C21.6328 68.6148 21.6958 68.445 21.8218 68.3188C21.9557 68.1926 22.1329 68.1294 22.3534 68.1294C22.5739 68.1294 22.7511 68.1926 22.8849 68.3188C23.0188 68.445 23.0858 68.6148 23.0858 68.8279V69.1238C23.259 68.8002 23.5071 68.5516 23.8299 68.378C24.1607 68.1964 24.5347 68.1057 24.9521 68.1057ZM24.5623 72.983C25.0269 72.983 25.3892 72.8251 25.6491 72.5095C25.9089 72.1859 26.0388 71.7322 26.0388 71.1481C26.0388 70.5484 25.9089 70.0827 25.6491 69.7512C25.3892 69.4198 25.0269 69.254 24.5623 69.254C24.0898 69.254 23.7236 69.4158 23.4638 69.7394C23.2117 70.063 23.0858 70.5247 23.0858 71.1245C23.0858 71.7164 23.2117 72.174 23.4638 72.4977C23.7236 72.8213 24.0898 72.983 24.5623 72.983ZM31.952 68.1294C32.1568 68.1136 32.3182 68.1571 32.4363 68.2596C32.5545 68.3622 32.6135 68.5161 32.6135 68.7213C32.6135 68.9344 32.5623 69.0923 32.46 69.1948C32.3576 69.2974 32.1725 69.3646 31.9048 69.3961L31.5504 69.4316C31.0857 69.479 30.7432 69.6368 30.5227 69.9051C30.3101 70.1734 30.2038 70.5089 30.2038 70.9114V73.3974C30.2038 73.6263 30.1329 73.8039 29.9912 73.9301C29.8494 74.0485 29.6722 74.1077 29.4596 74.1077C29.247 74.1077 29.0698 74.0485 28.928 73.9301C28.7941 73.8039 28.7272 73.6263 28.7272 73.3974V68.816C28.7272 68.5951 28.7941 68.4254 28.928 68.307C29.0698 68.1886 29.243 68.1294 29.4478 68.1294C29.6526 68.1294 29.818 68.1886 29.9439 68.307C30.0699 68.4175 30.1329 68.5793 30.1329 68.7923V69.2659C30.2825 68.9186 30.5031 68.6503 30.7944 68.4609C31.0937 68.2715 31.4245 68.1649 31.7867 68.1412L31.952 68.1294ZM35.7681 74.1313C35.1774 74.1313 34.6577 74.009 34.2088 73.7644C33.7678 73.5197 33.4252 73.1685 33.1811 72.7108C32.9369 72.2531 32.8149 71.7203 32.8149 71.1126C32.8149 70.5049 32.9369 69.9762 33.1811 69.5263C33.4252 69.0686 33.7678 68.7173 34.2088 68.4727C34.6577 68.2281 35.1774 68.1057 35.7681 68.1057C36.3587 68.1057 36.8745 68.2281 37.3155 68.4727C37.7644 68.7173 38.1069 69.0686 38.3432 69.5263C38.5873 69.9762 38.7094 70.5049 38.7094 71.1126C38.7094 71.7203 38.5873 72.2531 38.3432 72.7108C38.1069 73.1685 37.7644 73.5197 37.3155 73.7644C36.8745 74.009 36.3587 74.1313 35.7681 74.1313ZM35.7563 72.983C36.2366 72.983 36.6028 72.8251 36.8548 72.5095C37.1067 72.1939 37.2328 71.7282 37.2328 71.1126C37.2328 70.5049 37.1067 70.0432 36.8548 69.7276C36.6028 69.4039 36.2406 69.2422 35.7681 69.2422C35.2956 69.2422 34.9294 69.4039 34.6695 69.7276C34.4175 70.0432 34.2915 70.5049 34.2915 71.1126C34.2915 71.7282 34.4175 72.1939 34.6695 72.5095C34.9214 72.8251 35.2838 72.983 35.7563 72.983ZM40.7906 74.0366C40.5623 74.0366 40.3811 73.9734 40.2472 73.8472C40.1213 73.721 40.0582 73.5434 40.0582 73.3145V66.4129C40.0582 66.184 40.1213 66.0064 40.2472 65.8802C40.3811 65.7539 40.5623 65.6908 40.7906 65.6908H43.1295C44.4919 65.6908 45.5472 66.0577 46.2952 66.7917C47.0512 67.5178 47.4292 68.5397 47.4292 69.8578C47.4292 71.1836 47.0512 72.2136 46.2952 72.9475C45.5472 73.6736 44.4919 74.0366 43.1295 74.0366H40.7906ZM43.035 72.7936C44.9486 72.7936 45.9054 71.8151 45.9054 69.8578C45.9054 67.9085 44.9486 66.9338 43.035 66.9338H41.582V72.7936H43.035ZM52.0587 68.1294C52.2635 68.1136 52.4249 68.1571 52.543 68.2596C52.6611 68.3622 52.7202 68.5161 52.7202 68.7213C52.7202 68.9344 52.6689 69.0923 52.5666 69.1948C52.4643 69.2974 52.2791 69.3646 52.0114 69.3961L51.6571 69.4316C51.1924 69.479 50.8498 69.6368 50.6294 69.9051C50.4167 70.1734 50.3104 70.5089 50.3104 70.9114V73.3974C50.3104 73.6263 50.2396 73.8039 50.0978 73.9301C49.9561 74.0485 49.7789 74.1077 49.5662 74.1077C49.3536 74.1077 49.1764 74.0485 49.0347 73.9301C48.9008 73.8039 48.8339 73.6263 48.8339 73.3974V68.816C48.8339 68.5951 48.9008 68.4254 49.0347 68.307C49.1764 68.1886 49.3496 68.1294 49.5544 68.1294C49.7592 68.1294 49.9246 68.1886 50.0506 68.307C50.1765 68.4175 50.2396 68.5793 50.2396 68.7923V69.2659C50.3891 68.9186 50.6097 68.6503 50.9011 68.4609C51.2004 68.2715 51.5311 68.1649 51.8933 68.1412L52.0587 68.1294ZM54.0882 74.1077C53.8756 74.1077 53.6984 74.0485 53.5567 73.9301C53.4227 73.8039 53.3558 73.6263 53.3558 73.3974V68.8279C53.3558 68.5989 53.4227 68.4254 53.5567 68.307C53.6984 68.1886 53.8756 68.1294 54.0882 68.1294C54.3008 68.1294 54.478 68.1886 54.6198 68.307C54.7615 68.4254 54.8324 68.5989 54.8324 68.8279V73.3974C54.8324 73.6263 54.7615 73.8039 54.6198 73.9301C54.478 74.0485 54.3008 74.1077 54.0882 74.1077ZM54.0882 67.0758C53.8205 67.0758 53.6079 67.0048 53.4503 66.8627C53.2928 66.7128 53.2141 66.5194 53.2141 66.2827C53.2141 66.0459 53.2928 65.8565 53.4503 65.7144C53.6079 65.5724 53.8205 65.5013 54.0882 65.5013C54.3481 65.5013 54.5567 65.5724 54.7143 65.7144C54.8797 65.8565 54.9623 66.0459 54.9623 66.2827C54.9623 66.5194 54.8836 66.7128 54.7261 66.8627C54.5685 67.0048 54.3559 67.0758 54.0882 67.0758ZM60.3831 68.5556C60.4461 68.4135 60.5288 68.307 60.6312 68.2359C60.7415 68.1649 60.8596 68.1294 60.9855 68.1294C61.1667 68.1294 61.3281 68.1926 61.4698 68.3188C61.6196 68.4372 61.6943 68.5871 61.6943 68.7687C61.6943 68.8634 61.6707 68.9581 61.6234 69.0528L59.4381 73.6341C59.3672 73.784 59.2649 73.8986 59.131 73.9774C59.005 74.0563 58.8633 74.0958 58.7057 74.0958C58.5561 74.0958 58.4104 74.0563 58.2687 73.9774C58.1349 73.8986 58.0324 73.784 57.9615 73.6341L55.7644 69.0528C55.7251 68.9739 55.7053 68.8831 55.7053 68.7805C55.7053 68.5989 55.7802 68.445 55.9298 68.3188C56.0873 68.1926 56.2645 68.1294 56.4613 68.1294C56.7448 68.1294 56.9536 68.2675 57.0874 68.5437L58.7412 72.2017L60.3831 68.5556ZM67.052 72.4503C67.1858 72.4503 67.2921 72.5017 67.3709 72.6042C67.4575 72.7068 67.5009 72.845 67.5009 73.0185C67.5009 73.2632 67.3551 73.4684 67.0638 73.6341C66.796 73.784 66.4928 73.9064 66.1542 74.0011C65.8155 74.088 65.4927 74.1313 65.1856 74.1313C64.2563 74.1313 63.5201 73.8631 62.9767 73.3263C62.4333 72.7896 62.1616 72.0557 62.1616 71.1245C62.1616 70.5325 62.2797 70.0077 62.516 69.55C62.7522 69.0923 63.083 68.7371 63.5082 68.4846C63.9413 68.232 64.4296 68.1057 64.973 68.1057C65.4927 68.1057 65.9455 68.2201 66.3314 68.449C66.7173 68.678 67.0166 69.0014 67.2292 69.4198C67.4418 69.8381 67.5481 70.3313 67.5481 70.8995C67.5481 71.2388 67.3984 71.4086 67.0992 71.4086H63.6146C63.6618 71.9531 63.8154 72.3556 64.0752 72.6161C64.3351 72.8686 64.7131 72.9949 65.2092 72.9949C65.4611 72.9949 65.6817 72.9634 65.8707 72.9002C66.0676 72.837 66.288 72.7503 66.5322 72.6397C66.7685 72.5135 66.9417 72.4503 67.052 72.4503ZM65.0084 69.1475C64.6068 69.1475 64.2839 69.2737 64.0398 69.5263C63.8036 69.7789 63.6618 70.1419 63.6146 70.6154H66.2842C66.2684 70.134 66.1503 69.7709 65.9298 69.5263C65.7092 69.2737 65.4021 69.1475 65.0084 69.1475ZM71.9808 68.1294C72.1854 68.1136 72.3469 68.1571 72.4651 68.2596C72.5832 68.3622 72.6423 68.5161 72.6423 68.7213C72.6423 68.9344 72.591 69.0923 72.4887 69.1948C72.3862 69.2974 72.2012 69.3646 71.9335 69.3961L71.5791 69.4316C71.1145 69.479 70.7719 69.6368 70.5514 69.9051C70.3388 70.1734 70.2325 70.5089 70.2325 70.9114V73.3974C70.2325 73.6263 70.1616 73.8039 70.0199 73.9301C69.8781 74.0485 69.7009 74.1077 69.4883 74.1077C69.2757 74.1077 69.0985 74.0485 68.9568 73.9301C68.8228 73.8039 68.7559 73.6263 68.7559 73.3974V68.816C68.7559 68.5951 68.8228 68.4254 68.9568 68.307C69.0985 68.1886 69.2717 68.1294 69.4765 68.1294C69.6812 68.1294 69.8465 68.1886 69.9726 68.307C70.0986 68.4175 70.1616 68.5793 70.1616 68.7923V69.2659C70.3112 68.9186 70.5317 68.6503 70.8231 68.4609C71.1223 68.2715 71.453 68.1649 71.8154 68.1412L71.9808 68.1294Z" fill="white"></path></svg>