<svg xmlns="http://www.w3.org/2000/svg" width="99" height="77" viewBox="0 0 99 77" fill="none"><path d="M98.3689 62.3934C100.156 70.1006 91.9555 76.7196 84.0432 76.7196H14.3257C6.41344 76.7196 0 70.3057 0 62.3934V14.5256C0 6.61382 6.41344 0.199951 14.3257 0.199951H70.9121C78.8235 0.199951 83.4408 6.82074 85.2379 14.5256C88.1085 26.8377 95.4216 49.6868 98.3689 62.3934Z" fill="url(#paint0_linear)"></path><path d="M68.2203 2.71143C76.1317 2.71143 80.6738 9.34963 82.5457 17.0366" stroke="white" stroke-width="2.9254" stroke-miterlimit="10" stroke-linecap="round"></path><path d="M50.4698 32.7955C51.8457 41.4221 46.6008 49.4303 38.7555 50.681C30.9097 51.933 23.4337 45.9531 22.0578 37.327C20.6819 28.6999 25.9268 20.6922 33.7726 19.4406C41.6184 18.1895 49.0939 24.1684 50.4698 32.7955Z" fill="url(#paint1_radial)"></path><path d="M44.2797 16.8747C43.8407 15.8135 42.7969 15.0657 41.5761 15.0657C41.3178 15.0657 41.0691 15.1024 40.8297 15.1653C40.4645 13.9669 39.3505 13.0943 38.0329 13.0943C37.2804 13.0943 36.5964 13.381 36.0784 13.8481C35.3384 12.6117 33.9895 11.7812 32.4434 11.7812C30.6321 11.7812 29.0901 12.92 28.4841 14.5188C27.7959 14.0371 26.96 13.7522 26.0566 13.7522C24.7628 13.7522 23.6058 14.334 22.8286 15.2483C22.5134 15.1322 22.1743 15.0657 21.8192 15.0657C20.2038 15.0657 18.8944 16.3751 18.8944 17.9905C18.8944 18.1809 18.9142 18.3667 18.949 18.547C17.6699 19.276 16.8051 20.6501 16.8051 22.2283C16.8051 22.794 16.918 23.3331 17.1194 23.8268C15.5898 24.4493 14.5066 25.9381 14.479 27.6852C13.9358 28.2527 13.6 29.0207 13.6 29.8686C13.6 30.3021 13.6876 30.7155 13.8464 31.0921C13.2454 31.6271 12.8655 32.4029 12.8655 33.2709C12.8655 34.2867 13.3835 35.1809 14.1698 35.7048C13.812 36.2173 13.6 36.8389 13.6 37.5111C13.6 38.8516 14.4368 39.9945 15.6155 40.4533C15.5549 40.6969 15.52 40.9501 15.52 41.2117C15.52 42.9569 16.9345 44.3709 18.6793 44.3709C18.7761 44.3709 18.8715 44.3649 18.9651 44.3567C19.3675 45.2673 20.2194 45.9344 21.2425 46.0739C21.7862 47.787 23.3878 49.029 25.2817 49.029C27.622 49.029 29.5196 47.1314 29.5196 44.7911C29.5196 42.6087 27.8684 40.8125 25.7474 40.5804C25.9593 40.0757 26.0768 39.5224 26.0768 38.9416C26.0768 38.1983 25.8841 37.5005 25.5478 36.8931C27.5041 36.5173 28.9814 34.7992 28.9814 32.7337C28.9814 32.6617 28.9741 32.591 28.9713 32.5199C29.3879 32.6571 29.832 32.7337 30.2954 32.7337C32.6366 32.7337 34.5332 30.8366 34.5332 28.4963C34.5332 28.3674 34.525 28.2408 34.5139 28.1146C35.0475 28.3573 35.6394 28.4963 36.2638 28.4963C38.605 28.4963 40.5016 26.5988 40.5016 24.2585C40.5016 24.0071 40.4755 23.7621 40.4337 23.523C41.2004 24.6163 42.4675 25.3325 43.9035 25.3325C46.2447 25.3325 48.1414 23.435 48.1414 21.0947C48.1418 18.8806 46.4439 17.0656 44.2797 16.8747Z" fill="url(#paint2_linear)"></path><path d="M30.0705 14.701C31.067 13.3178 34.0973 13.0517 34.936 14.701C35.0672 14.9584 35.4531 14.7318 35.3228 14.4753C34.3153 12.4947 30.8647 12.8365 29.6838 14.4753C29.5145 14.7097 29.9031 14.9327 30.0705 14.701Z" fill="#442D70"></path><path d="M19.3711 19.6164C17.9076 19.788 17.6502 22.432 18.6164 23.2817C18.8325 23.4716 19.1504 23.156 18.933 22.9651C18.2939 22.4036 18.3145 20.1876 19.3711 20.0642C19.6542 20.0312 19.6574 19.5829 19.3711 19.6164Z" fill="#442D70"></path><path d="M15.08 28.3617C14.2629 28.9443 13.8183 30.7184 14.8409 31.3153C15.0905 31.4607 15.3162 31.074 15.0667 30.9286C14.3684 30.5212 14.7588 29.1379 15.3057 28.7484C15.5387 28.5823 15.3158 28.1937 15.08 28.3617Z" fill="#442D70"></path><path d="M14.7009 36.3217C13.9926 37.5274 14.7675 39.0767 16.0888 39.396C16.3696 39.4635 16.4884 39.0322 16.2081 38.9643C15.1671 38.7129 14.5215 37.5113 15.0877 36.5474C15.234 36.2983 14.8468 36.073 14.7009 36.3217Z" fill="#442D70"></path><path d="M24.5256 37.667C25.1991 38.5318 25.4005 39.4301 24.9082 40.4399C24.7825 40.6982 25.1684 40.9253 25.295 40.6656C25.885 39.4553 25.6506 38.3882 24.8426 37.3499C24.6646 37.1228 24.3503 37.4421 24.5256 37.667Z" fill="#442D70"></path><path d="M19.8939 44.2473C20.3436 44.8988 21.0405 45.48 21.8782 45.2461C22.1558 45.1685 22.0379 44.7364 21.7589 44.8144C21.1309 44.9901 20.612 44.5019 20.2807 44.0216C20.1178 43.7853 19.7297 44.0092 19.8939 44.2473Z" fill="#442D70"></path><path d="M39.3531 23.4157C39.945 24.3966 39.4793 25.8294 38.7452 26.5988C38.0126 27.3673 36.7642 27.3709 35.7865 27.3764C35.4979 27.3778 35.4979 27.8256 35.7865 27.8242C37.1418 27.8164 38.4892 27.6779 39.3825 26.5456C40.0647 25.6812 40.3235 24.1571 39.7399 23.19C39.5908 22.9431 39.2036 23.1679 39.3531 23.4157Z" fill="#442D70"></path><path d="M41.1511 16.3925C42.2252 15.6975 43.7979 16.2356 43.7988 17.6317C43.7993 17.9203 44.2471 17.9203 44.2471 17.6317C44.2452 15.9099 42.2903 15.1226 40.9254 16.0058C40.6841 16.1622 40.908 16.5499 41.1511 16.3925Z" fill="#442D70"></path><path d="M22.9303 21.8701C22.4238 20.2753 23.4084 18.5604 25.1013 18.3337C25.383 18.2961 25.3867 17.8479 25.1013 17.886C23.1345 18.1498 21.8948 20.0872 22.4981 21.9894C22.5853 22.2633 23.0175 22.1458 22.9303 21.8701Z" fill="#442D70"></path><path d="M20.6849 25.7728C18.5722 26.1908 17.8079 28.9417 19.059 30.5786C19.2319 30.8048 19.621 30.5823 19.4457 30.3529C18.3662 28.9403 18.9507 26.5716 20.8042 26.2045C21.0873 26.1481 20.9671 25.7168 20.6849 25.7728Z" fill="#442D70"></path><path d="M28.578 24.0848C27.8293 22.3837 29.803 21.2922 31.2496 21.2578C31.5377 21.2509 31.5381 20.8031 31.2496 20.81C29.4135 20.8531 27.2989 22.2818 28.1913 24.3101C28.3073 24.5744 28.6932 24.3463 28.578 24.0848Z" fill="#442D70"></path><path d="M34.8079 19.9597C35.2259 18.7293 36.7123 19.2161 37.523 19.7354C37.7666 19.8914 37.991 19.5042 37.7487 19.3486C36.6541 18.6472 34.8978 18.3054 34.3757 19.8405C34.2831 20.1148 34.7157 20.2318 34.8079 19.9597Z" fill="#442D70"></path><path d="M23.6155 32.0025C22.3405 32.771 21.9276 34.5139 23.0925 35.5774C23.3054 35.7715 23.6228 35.4558 23.409 35.2608C22.458 34.3923 22.8034 33.0146 23.8412 32.3893C24.088 32.2402 23.8632 31.8529 23.6155 32.0025Z" fill="#442D70"></path><path d="M19.0338 36.276C18.1919 37.2794 18.9264 38.6218 20.028 39.0374C20.2987 39.1397 20.4143 38.7067 20.1473 38.6062C19.3806 38.3167 18.7388 37.322 19.3508 36.593C19.5348 36.3728 19.2196 36.0544 19.0338 36.276Z" fill="#442D70"></path><path d="M24.3999 43.5971C24.4981 44.6152 25.3179 45.2235 26.2952 45.313C26.5828 45.3391 26.5801 44.8913 26.2952 44.8647C25.5804 44.7996 24.9206 44.3536 24.8472 43.5966C24.8202 43.3122 24.3724 43.3094 24.3999 43.5971Z" fill="#442D70"></path><path d="M44.7995 20.8183C44.2788 20.6839 43.7305 20.7977 43.3878 21.234C43.0272 21.6928 43.0974 22.2984 43.4126 22.7586C43.5745 22.9953 43.9622 22.7719 43.7989 22.5329C43.3171 21.8282 43.8337 21.0312 44.6807 21.2496C44.9601 21.3221 45.0784 20.8904 44.7995 20.8183Z" fill="#442D70"></path><path d="M64.0933 76.7194H20.9697C24.2432 67.0669 33.909 43.0254 45.7568 54.2492C51.5481 59.7827 54.1196 67.6294 59.91 73.2918C61.0671 74.4484 62.9972 75.3508 64.0295 76.6405C64.0502 76.6685 64.0717 76.6941 64.0933 76.7194Z" fill="url(#paint3_radial)"></path><path d="M83.5061 20.615L84.8196 25.7484" stroke="white" stroke-width="2.9254" stroke-miterlimit="10" stroke-linecap="round"></path><defs><linearGradient id="paint0_linear" x1="74.8896" y1="11.8404" x2="15.6768" y2="73.9181" gradientUnits="userSpaceOnUse"><stop stop-color="#9E86FD"></stop><stop offset="1" stop-color="#6748E3"></stop></linearGradient><radialGradient id="paint1_radial" cx="0" cy="0" r="1" gradientUnits="userSpaceOnUse" gradientTransform="translate(46.319 31.4787) scale(15.7454)"><stop stop-color="#B35951"></stop><stop offset="1" stop-color="#541E00"></stop></radialGradient><linearGradient id="paint2_linear" x1="41.7886" y1="13.2215" x2="14.6197" y2="41.7049" gradientUnits="userSpaceOnUse"><stop offset="0.0054" stop-color="#311F45"></stop><stop offset="0.9946" stop-color="#1A1F1D"></stop></linearGradient><radialGradient id="paint3_radial" cx="0" cy="0" r="1" gradientUnits="userSpaceOnUse" gradientTransform="translate(42.5316 64.0227) scale(17.6934)"><stop stop-color="#B3E751"></stop><stop offset="1" stop-color="#6FC073"></stop></radialGradient></defs></svg>