<svg xmlns="http://www.w3.org/2000/svg" width="111" height="68" viewBox="0 0 111 68" fill="none"><path d="M39.7025 58.5346V9.46489C39.7025 7.57677 40.146 5.79308 40.932 4.20905H25.4967C20.1398 4.20905 15.7957 8.55216 15.7957 13.9105V54.0885C15.7957 59.4469 20.1393 63.7905 25.4967 63.7905H40.932C40.146 62.206 39.7025 60.4232 39.7025 58.5346Z" fill="url(#paint0_radial)"></path><path d="M35.1578 39.77C35.1578 39.9215 28.3029 40.0444 19.8464 40.0444C11.39 40.0444 4.53552 39.9211 4.53552 39.77C4.53552 39.6189 11.39 39.496 19.8464 39.496C28.3029 39.496 35.1578 39.6184 35.1578 39.77Z" fill="#4D4D4D"></path><path d="M2.20514 36.7433C2.20514 37.5923 2.5424 38.4065 3.14272 39.0068C3.74304 39.6071 4.55726 39.9444 5.40624 39.9444C6.25523 39.9444 7.06944 39.6071 7.66976 39.0068C8.27009 38.4065 8.60734 37.5923 8.60734 36.7433C8.60734 34.9751 6.40203 32.3229 4.6339 32.3229C2.86576 32.3229 2.20514 34.9751 2.20514 36.7433Z" fill="#0F0F0F"></path><path d="M19.6291 37.3845C19.6631 37.4136 18.541 37.3845 18.541 37.3845C18.541 37.3845 18.541 33.8579 20.5326 32.9058L20.7172 33.1973C20.7172 33.1973 18.9976 36.8016 19.6291 37.3845Z" fill="#1B073A"></path><path d="M2.55036 37.0396L1.52057 36.9425C1.52057 37.0979 1.574 34.3631 2.49207 33.2653L3.5753 33.5033L2.55036 37.0396Z" fill="#1B073A"></path><path d="M19.4884 36.7432C19.4716 37.1737 19.5419 37.6032 19.6951 38.006C19.8483 38.4087 20.0812 38.7763 20.3799 39.0869C20.6786 39.3974 21.0369 39.6445 21.4333 39.8132C21.8298 39.982 22.2562 40.069 22.6871 40.069C23.1179 40.069 23.5444 39.982 23.9408 39.8132C24.3373 39.6445 24.6956 39.3974 24.9943 39.0869C25.2929 38.7763 25.5258 38.4087 25.679 38.006C25.8322 37.6032 25.9025 37.1737 25.8858 36.7432C25.8858 34.9751 23.5493 32.6094 21.7811 32.6094C20.013 32.6094 19.4884 34.9751 19.4884 36.7432Z" fill="#0F0F0F"></path><path d="M29.2955 36.7092C29.3278 37.536 29.6789 38.3182 30.2752 38.8917C30.8716 39.4653 31.6668 39.7857 32.4942 39.7857C33.3216 39.7857 34.1169 39.4653 34.7132 38.8917C35.3096 38.3182 35.6607 37.536 35.6929 36.7092C35.6929 34.9411 33.3564 32.5755 31.5883 32.5755C29.8201 32.5755 29.2955 34.9217 29.2955 36.7092Z" fill="#0F0F0F"></path><path d="M12.3868 36.7092C12.4191 37.536 12.7702 38.3182 13.3665 38.8917C13.9629 39.4653 14.7581 39.7857 15.5855 39.7857C16.4129 39.7857 17.2082 39.4653 17.8045 38.8917C18.4009 38.3182 18.752 37.536 18.7842 36.7092C18.7842 34.9411 16.4429 32.5755 14.6796 32.5755C12.9163 32.5755 12.3868 34.9217 12.3868 36.7092Z" fill="#0F0F0F"></path><path d="M3.55604 33.5033L2.2008 37.0105L1.61304 36.9522L1.62275 36.447L2.26394 34.0037L2.68169 33.4888L3.17716 33.241L3.55604 33.5033Z" fill="#0F0F0F"></path><path d="M24.1905 26.7567L30.4032 29.9141C30.4032 29.9141 35.8485 30.7545 37.3981 32.1292C37.3981 32.1292 38.1996 32.9695 38.2773 34.9125L38.1996 37.0498C38.1313 37.1898 38.0212 37.3051 37.8847 37.3799C37.7481 37.4548 37.5916 37.4854 37.4369 37.4676H25.5263C25.3754 37.4689 25.2301 37.4113 25.1211 37.3069C25.0122 37.2025 24.9484 37.0597 24.9434 36.909L24.9045 35.9715C24.8794 35.3789 24.7129 34.8009 24.4188 34.2859C24.1592 33.8128 23.7733 33.421 23.3042 33.1543C22.835 32.8876 22.301 32.7563 21.7617 32.7752C19.4107 32.7752 18.9881 35.6217 19.0075 36.8798C19.0077 37.0115 18.9575 37.1382 18.8671 37.234C18.7768 37.3298 18.6532 37.3873 18.5217 37.3947H8.5541C8.3836 37.3934 8.22051 37.3248 8.10041 37.2038C7.9803 37.0828 7.9129 36.9192 7.9129 36.7487V36.4086C7.91863 35.5892 7.68571 34.7858 7.24256 34.0965C6.95429 33.6 6.5193 33.205 5.99741 32.9658C5.47551 32.7266 4.89233 32.6549 4.32805 32.7606C4.09829 32.798 3.87554 32.8701 3.66743 32.9744C3.0068 33.3144 1.75842 34.2762 1.88472 36.6467C1.88672 36.6937 1.87712 36.7405 1.85676 36.7829C1.8364 36.8253 1.80592 36.862 1.76799 36.8899C1.73006 36.9177 1.68586 36.9358 1.6393 36.9425C1.59273 36.9492 1.54522 36.9444 1.50097 36.9284C1.25324 36.8313 0.942356 36.7001 0.694622 36.5738C0.593033 36.5207 0.505094 36.4449 0.437681 36.3522C0.370268 36.2595 0.325206 36.1525 0.30602 36.0395L0.00485378 34.2859C-0.0028578 34.2342 0.00396177 34.1814 0.0245499 34.1334C0.0451381 34.0853 0.0786832 34.0439 0.121434 34.0139L0.471176 33.7661C0.471176 33.7661 0.0145688 31.7454 1.08322 30.9828L3.06509 29.8753C3.06509 29.8753 6.49936 26.6596 8.98156 26.3681H22.5389C23.1127 26.3631 23.6792 26.4964 24.1905 26.7567V26.7567Z" fill="url(#paint1_linear)"></path><path d="M22.0044 39.7065C23.4316 39.7065 24.5886 38.2037 24.5886 36.3499C24.5886 34.4961 23.4316 32.9933 22.0044 32.9933C20.5772 32.9933 19.4202 34.4961 19.4202 36.3499C19.4202 38.2037 20.5772 39.7065 22.0044 39.7065Z" fill="#2B2B2B"></path><path d="M22.0047 38.6959C23.0027 38.6959 23.8117 37.6455 23.8117 36.3497C23.8117 35.054 23.0027 34.0035 22.0047 34.0035C21.0068 34.0035 20.1978 35.054 20.1978 36.3497C20.1978 37.6455 21.0068 38.6959 22.0047 38.6959Z" fill="#DDDDDD"></path><path d="M2.14227 36.3498C2.14227 38.2005 3.18664 39.6238 4.72648 39.7064C6.15459 39.7792 7.31068 38.2005 7.31068 36.3498C7.31068 34.4991 6.15459 32.9787 4.72648 32.9787C3.29836 32.9787 2.14227 34.4991 2.14227 36.3498Z" fill="#2B2B2B"></path><path d="M4.72626 38.6959C5.72424 38.6959 6.53326 37.6455 6.53326 36.3497C6.53326 35.054 5.72424 34.0035 4.72626 34.0035C3.72827 34.0035 2.91925 35.054 2.91925 36.3497C2.91925 37.6455 3.72827 38.6959 4.72626 38.6959Z" fill="#DDDDDD"></path><path d="M24.1903 26.7076L30.3982 29.9281H20.0663L17.5841 27.0136L17.0206 26.3335H22.5582C23.1245 26.3244 23.6845 26.4527 24.1903 26.7076Z" fill="#0F0F0F"></path><path d="M17.0208 26.3093L20.0665 29.9282L3.06519 29.8699C3.68045 29.2292 4.36096 28.6545 5.09563 28.1552C5.09563 28.1552 7.43695 26.4356 8.98164 26.3093H17.0208Z" fill="url(#paint2_linear)"></path><path d="M37.3934 34.1009H32.157L31.3749 33.3188H26.5174L24.895 31.6964C24.895 31.6964 36.1547 32.4299 37.1991 32.2307L37.3739 32.1044C37.5885 32.2806 37.7555 32.5077 37.8597 32.7651C37.9498 32.9901 38.0134 33.2248 38.0491 33.4645L37.68 33.3868L37.3934 34.1009Z" fill="white"></path><path d="M24.9045 31.7012L26.5124 33.3187C26.8449 33.9555 27.0274 34.6599 27.0459 35.3781C27.0644 36.0962 26.9185 36.8091 26.6192 37.4622H25.5214C25.382 37.4651 25.2462 37.4176 25.1391 37.3283C25.032 37.2391 24.9608 37.1141 24.9385 36.9764C24.9385 36.9764 25.2494 34.436 23.5153 33.2944C22.9234 32.9084 22.217 32.7369 21.514 32.8087C21.514 32.8087 19.6293 32.8087 19.1678 35.4075C19.0509 35.9006 18.9971 36.4066 19.0075 36.9133C19.0005 37.0288 18.9559 37.1388 18.8804 37.2265C18.805 37.3142 18.7029 37.3748 18.5897 37.399H8.5201C8.35174 37.389 8.19384 37.314 8.07967 37.1899C7.96551 37.0658 7.90398 36.9022 7.90805 36.7336C7.90805 36.7336 7.93719 35.3637 7.66517 34.9751C7.66517 34.9751 7.15513 33.2507 5.56187 32.8038C5.00181 32.6484 4.40676 32.6757 3.86333 32.8819C3.3199 33.0881 2.85647 33.4624 2.54049 33.9502C2.00894 34.7681 1.77563 35.7443 1.87986 36.7141C1.87028 36.7516 1.85332 36.7868 1.82998 36.8177C1.80664 36.8486 1.77739 36.8745 1.74392 36.8939C1.71046 36.9134 1.67347 36.926 1.63509 36.931C1.59671 36.9359 1.55773 36.9332 1.52041 36.923C1.52041 36.923 0.5489 36.5927 0.437177 36.3304C0.367535 36.2283 0.321109 36.1123 0.301167 35.9904L0 34.1931C0 34.1931 -2.89531e-08 34.0571 0.218589 33.9308L0.49061 33.7413C0.317777 33.0707 0.339682 32.3647 0.553758 31.706L24.9045 31.7012Z" fill="url(#paint3_linear)"></path><path opacity="0.57" d="M17.6765 31.7012H7.21338L7.66513 32.527L17.6765 31.7692C17.7056 31.7886 17.7008 31.7012 17.6765 31.7012Z" fill="url(#paint4_linear)"></path><path d="M37.4418 32.0896C37.6198 32.2892 37.7627 32.5175 37.8644 32.7648C37.9676 32.9689 38.0474 33.184 38.1024 33.406" fill="white"></path><path d="M3.83745 29.5785C4.14348 29.3162 4.56122 28.9811 5.11498 28.573C5.11498 28.573 7.46117 26.8486 9.001 26.7272H16.5399L19.2164 29.9089L3.56543 29.87C3.56543 29.87 3.64315 29.7777 3.83745 29.5785Z" fill="#0F0F0F"></path><path d="M16.3504 30.3799L17.9194 30.5597C18.0126 30.5666 18.1063 30.5537 18.1942 30.5218C18.2821 30.4899 18.3622 30.4397 18.4293 30.3745C18.4963 30.3092 18.5488 30.2306 18.5831 30.1436C18.6175 30.0566 18.633 29.9633 18.6286 29.8699V29.8699C18.633 29.7765 18.6175 29.6832 18.5831 29.5962C18.5488 29.5092 18.4963 29.4305 18.4293 29.3653C18.3622 29.3001 18.2821 29.2499 18.1942 29.218C18.1063 29.186 18.0126 29.1731 17.9194 29.1801L16.3504 29.3599C16.2294 29.3767 16.1192 29.4386 16.0417 29.5332C15.9643 29.6277 15.9253 29.7479 15.9326 29.8699C15.9253 29.9919 15.9643 30.1121 16.0417 30.2066C16.1192 30.3012 16.2294 30.363 16.3504 30.3799V30.3799Z" fill="#7350FC"></path><path d="M33.075 32.1628C33.075 32.1628 28.6353 32.0899 24.9047 31.7013C23.1816 31.4934 21.5304 30.8881 20.0812 29.9332V29.9332H26.8234L33.075 32.1628Z" fill="url(#paint5_linear)"></path><path style="mix-blend-mode:lighten" d="M15.821 35.8981L17.6135 36.6656L8.68048 36.7288L9.47226 35.9127L15.821 35.8981Z" fill="url(#paint6_linear)"></path><path d="M22.1259 26.8047H17.4287L17.0206 26.3189H22.5582C23.1249 26.3181 23.6833 26.4548 24.1855 26.7172L30.3934 29.9378H29.0041L23.758 27.2127C23.2547 26.9474 22.6948 26.8074 22.1259 26.8047V26.8047Z" fill="#191919"></path><path d="M17.584 26.9895L17.4285 26.8049L22.4318 26.7709C22.9983 26.7712 23.5564 26.9078 24.0591 27.1692L29.004 29.9283H20.0662L17.584 26.9895Z" fill="#0F0F0F"></path><path style="mix-blend-mode:lighten" opacity="0.51" d="M38.2238 36.1944L27.5907 36.1798C27.5907 36.1798 27.1049 36.1798 27.0369 35.8446V35.218L38.2773 35.3248L38.2238 36.1944Z" fill="url(#paint7_linear)"></path><path d="M110.085 56.9278C110.085 63.0434 105.129 68 99.0135 68H53.1575C47.0423 68 42.0857 63.0434 42.0857 56.9278V11.0718C42.0857 4.95759 47.0423 0 53.1575 0H99.0135C105.129 0 110.085 4.95759 110.085 11.0718V56.9278Z" fill="url(#paint8_linear)"></path><path d="M93.398 41.1972C93.398 41.3798 85.1324 41.5275 74.9375 41.5275C64.7415 41.5275 56.4764 41.3798 56.4764 41.1972C56.4764 41.0141 64.7415 40.8659 74.9375 40.8659C85.1329 40.8664 93.398 41.0141 93.398 41.1972Z" fill="#4D4D4D"></path><path opacity="0.1" d="M84.2991 33.3647C84.2991 33.3647 86.3623 36.5059 85.4939 39.3122H82.3699C82.1952 39.2938 82.0334 39.2125 81.9152 39.0837C81.797 38.9549 81.7307 38.7875 81.7288 38.6135C81.7662 38.0003 81.7388 37.3849 81.6472 36.7773C81.6472 36.7773 81.3733 34.1212 78.9953 33.5553C78.304 33.3689 77.5681 33.4342 76.9212 33.7393C76.2742 34.0444 75.7591 34.5691 75.4692 35.2183C75.4692 35.2183 74.7232 36.3731 74.968 38.856C74.9464 38.9485 74.9021 39.0343 74.8391 39.1058C74.7761 39.1773 74.6962 39.2323 74.6066 39.266H62.4955C62.3659 39.2322 62.2509 39.1576 62.1679 39.0535C62.0848 38.9493 62.0382 38.8212 62.035 38.6886C62.035 38.6886 62.1749 36.119 61.0326 34.866C61.0326 34.866 59.1733 32.3658 56.638 34.0403C56.638 34.0403 55.0935 35.2298 55.3267 37.9148L54.4466 37.2277C54.1693 36.7265 53.9987 36.1742 53.9454 35.6051C53.8859 35.2484 53.8664 34.8863 53.8871 34.5254L53.9395 32.2157C54.2902 32.3069 54.659 32.3042 55.0082 32.2078C55.3574 32.1114 55.6745 31.9248 55.927 31.6671L59.9368 31.4535C59.9368 31.4535 74.2511 31.4535 78.9604 31.9847C78.9604 31.9732 82.6322 33.7632 84.2991 33.3647Z" fill="url(#paint9_linear)"></path><path d="M55.298 37.8052C55.3032 38.2795 55.4035 38.7481 55.5929 39.1838C55.7822 39.6195 56.057 40.0137 56.4012 40.3434C56.7455 40.6732 57.1523 40.932 57.5982 41.1049C58.0441 41.2777 58.5202 41.3612 58.9989 41.3505C59.9625 41.3644 60.8923 40.9988 61.584 40.3341C62.2757 39.6693 62.6729 38.7598 62.6882 37.8052C62.6882 35.8246 59.9839 33.1858 57.944 33.1858C55.9041 33.1858 55.298 35.8188 55.298 37.8052Z" fill="#0F0F0F"></path><path d="M75.3588 35.0623L75.3879 39.2602H74.3156L74.5603 36.8177L74.9974 34.9295L75.3588 35.0623Z" fill="#0F0F0F"></path><path d="M64.9203 37.678C64.9203 39.6701 66.4939 41.4659 68.5921 41.2811C70.9234 41.0733 72.2697 39.6701 72.2697 37.678C72.2697 35.6859 69.5829 33.024 67.5547 33.024C65.5264 33.024 64.9203 35.6917 64.9203 37.678Z" fill="#0F0F0F"></path><path d="M86.6714 37.6898C86.677 38.2062 86.7909 38.7158 87.0059 39.1862C87.2209 39.6567 87.5324 40.0776 87.9204 40.4225C88.3085 40.7673 88.7647 41.0284 89.26 41.1891C89.7554 41.3499 90.279 41.4069 90.7978 41.3564C93.0767 41.1601 94.9301 39.7165 94.9301 37.6898C94.9301 35.6631 91.911 32.955 89.6322 32.955C87.3533 32.955 86.6714 35.6631 86.6714 37.6898Z" fill="#0F0F0F"></path><path d="M74.9799 37.8051C74.9799 39.7915 76.7867 41.362 79.0306 41.362C81.2745 41.362 83.1104 39.7915 83.1104 37.8051C83.1104 35.8188 80.1496 33.1858 77.9116 33.1858C75.6735 33.1858 74.9799 35.8188 74.9799 37.8051Z" fill="#0F0F0F"></path><path d="M84.2006 27.2084L88.8166 29.5585C88.8166 29.5585 94.7206 30.5632 97.1394 32.0241C97.5698 32.2837 97.925 32.6494 98.1701 33.0856C98.4153 33.5218 98.5421 34.0135 98.5381 34.5127V38.647C98.5389 38.7302 98.5231 38.8126 98.4915 38.8897C98.4599 38.9667 98.4132 39.0368 98.3542 39.0958C98.2951 39.1549 98.2248 39.2017 98.1473 39.2337C98.0699 39.2657 97.9868 39.2822 97.9029 39.2822H82.4113C82.2323 39.2764 82.0622 39.2034 81.9356 39.0779C81.8089 38.9525 81.7352 38.784 81.7294 38.6066V37.573C81.7371 36.72 81.5137 35.8805 81.0824 35.1421C80.7955 34.6127 80.3641 34.1739 79.8375 33.8758C79.3109 33.5776 78.7103 33.4322 78.1042 33.4561C77.9585 33.4561 74.6072 33.2713 74.9628 38.7741C74.9712 38.8829 74.9399 38.9911 74.8747 39.079C74.8094 39.1669 74.7146 39.2288 74.6072 39.2533H62.566C62.4114 39.2533 62.2632 39.1925 62.1539 39.0842C62.0446 38.9759 61.9832 38.829 61.9832 38.6759V37.8675C61.9832 37.8675 61.8608 33.8256 58.4862 33.5022C58.4862 33.5022 55.1641 33.0057 55.3331 37.9657L54.4006 37.2208C54.1616 36.7704 53.9693 36.4413 53.7245 35.9447C53.4335 35.3654 53.3572 34.7033 53.5089 34.0739L53.9402 32.2608C53.913 32.0056 53.9574 31.7478 54.0684 31.5159V31.5159C54.1894 31.2366 54.3784 30.9913 54.6184 30.8019C54.8584 30.6125 55.142 30.4848 55.4439 30.4304C55.9241 30.3504 56.3873 30.1903 56.8135 29.9569C56.9126 29.9049 59.0049 28.3863 61.004 27.1853C62.3354 26.3896 63.8556 25.9573 65.4102 25.9323C68.779 25.8919 75.4756 25.8342 79.3631 25.967C81.048 26.0243 82.6995 26.4481 84.2006 27.2084Z" fill="url(#paint10_linear)"></path><path opacity="0.31" d="M61.476 31.3726C61.476 31.3726 54.4005 31.6671 53.8993 32.2272C53.8993 32.2272 53.4272 35.634 54.4296 37.2277C54.4296 37.2277 55.0708 37.7474 55.3214 37.9321C55.2113 36.8962 55.4141 35.8512 55.9042 34.9296C56.1554 34.4752 56.5234 34.0948 56.9708 33.8267C57.3875 33.6154 57.849 33.5052 58.3171 33.5052C58.7853 33.5052 59.2467 33.6154 59.6634 33.8267C60.5727 34.2367 61.8316 35.1721 62.4727 39.266H74.3216C74.3216 39.266 73.051 33.613 77.4339 32.7758C77.4339 32.7758 81.6361 32.0829 82.7434 37.834L82.8658 38.8733C82.8804 39.0193 82.8804 39.1662 82.8658 39.3122H87.0913C87.5674 38.3602 87.6922 37.2733 87.4441 36.2398C87.1961 35.2062 86.5909 34.2913 85.7333 33.6535C84.3619 33.0253 82.9384 32.5153 81.4787 32.1291C79.9342 31.823 63.4402 31.2456 61.476 31.3726Z" fill="url(#paint11_linear)"></path><path d="M74.9391 37.3431C74.9391 39.4161 76.2388 41.0906 77.8533 41.0906C79.4677 41.0906 80.9539 39.3583 80.9539 37.2854C80.9539 35.2125 79.4619 33.5957 77.8533 33.5957C76.2447 33.5957 74.9391 35.276 74.9391 37.3431Z" fill="#2B2B2B"></path><path d="M77.83 39.9878C78.9598 39.9878 79.8757 38.809 79.8757 37.3548C79.8757 35.9006 78.9598 34.7217 77.83 34.7217C76.7001 34.7217 75.7842 35.9006 75.7842 37.3548C75.7842 38.809 76.7001 39.9878 77.83 39.9878Z" fill="#DDDDDD"></path><path d="M55.257 37.3431C55.257 39.4161 56.5625 41.0906 58.1711 41.0906C59.7797 41.0906 61.2717 39.3583 61.2717 37.2854C61.2717 35.2125 59.7797 33.5957 58.1711 33.5957C56.5625 33.5957 55.257 35.276 55.257 37.3431Z" fill="#2B2B2B"></path><path d="M58.2178 39.9242C59.3476 39.9242 60.2635 38.7454 60.2635 37.2912C60.2635 35.837 59.3476 34.6582 58.2178 34.6582C57.088 34.6582 56.1721 35.837 56.1721 37.2912C56.1721 38.7454 57.088 39.9242 58.2178 39.9242Z" fill="#DDDDDD"></path><path d="M72.5147 25.8238L77.3638 29.5481H88.8164C88.8164 29.5481 84.0022 26.482 80.6976 26.0143L79.9341 25.922L79.1939 25.8758L76.816 25.8296L72.5147 25.8238Z" fill="#191919"></path><path d="M77.3637 29.5479C77.3637 29.5479 62.3792 29.6807 57.4368 29.5479C58.4626 28.803 60.7823 27.2382 61.1436 27.0592C62.401 26.3409 63.8191 25.944 65.27 25.9044L72.5146 25.8524L77.3637 29.5479Z" fill="#2B2B2B"></path><path d="M97.1973 33.4744L97.8908 34.3867C97.9751 34.4896 98.021 34.618 98.021 34.7505C98.021 34.8829 97.9751 35.0114 97.8908 35.1143L97.6577 35.4145C97.5826 35.5081 97.4868 35.5834 97.3776 35.6345C97.2685 35.6855 97.1489 35.711 97.0282 35.709H89.6205C89.4299 35.7119 89.2444 35.6485 89.096 35.53L88.7579 35.2471C88.6867 35.1957 88.6281 35.1289 88.5866 35.0519C88.5451 34.9748 88.5218 34.8895 88.5184 34.8022C88.5151 34.7149 88.5317 34.628 88.5672 34.5481C88.6026 34.4681 88.6559 34.3971 88.723 34.3405L89.6438 33.3878C89.7179 33.3089 89.8084 33.2469 89.909 33.206C90.0096 33.1651 90.118 33.1464 90.2267 33.151H96.5969C96.715 33.1572 96.8302 33.1894 96.9341 33.2453C97.0379 33.3013 97.1279 33.3795 97.1973 33.4744Z" fill="white"></path><path d="M88.0703 34.0693C88.0057 34.1319 87.9291 34.181 87.845 34.2137C87.7609 34.2464 87.671 34.2621 87.5807 34.2599L82.0205 34.1213C81.8627 34.1192 81.7112 34.0596 81.595 33.9538L80.9539 33.3764C80.8872 33.3153 80.8339 33.2412 80.7975 33.1587C80.7611 33.0762 80.7422 32.9872 80.7422 32.8972C80.7422 32.8071 80.7611 32.7181 80.7975 32.6356C80.8339 32.5531 80.8872 32.479 80.9539 32.4179L81.0647 32.3082C81.1414 32.2359 81.2339 32.1822 81.3349 32.1512C81.436 32.1201 81.543 32.1126 81.6475 32.1292L87.6856 32.9549C87.808 32.9712 87.9233 33.021 88.0187 33.0986C88.1141 33.1762 88.1858 33.2786 88.2257 33.3943C88.2657 33.51 88.2723 33.6345 88.2448 33.7537C88.2174 33.8729 88.1569 33.9822 88.0703 34.0693V34.0693Z" fill="white"></path><path d="M97.7335 32.4235C97.7526 33.1483 98.0581 33.8367 98.5844 34.3405C98.5844 34.3405 98.8117 33.4051 97.7335 32.4235Z" fill="white"></path><path opacity="0.31" d="M83.8039 29.5711C83.8039 29.5711 90.0926 31.9674 90.7978 33.1511C90.7978 33.1511 86.6073 32.8913 81.5017 32.1233C81.5017 32.1233 78.6692 31.0551 77.387 29.5481C77.3637 29.5481 83.1919 29.5365 83.8039 29.5711Z" fill="url(#paint12_linear)"></path><path style="mix-blend-mode:lighten" opacity="0.51" d="M98.5379 36.4598L89.2476 36.5118C89.0764 36.515 88.9124 36.5808 88.7872 36.6966C88.5715 36.9045 88.2043 37.274 87.5341 37.9785C87.5142 38.0005 87.501 38.0277 87.4961 38.0568C87.4911 38.086 87.4947 38.1159 87.5063 38.1432C87.5179 38.1704 87.5371 38.1938 87.5616 38.2107C87.5861 38.2275 87.615 38.2371 87.6448 38.2383L98.5379 38.2037V36.4598Z" fill="url(#paint13_linear)"></path><path opacity="0.31" d="M82.8947 39.3063H82.3119C82.1445 39.267 81.9955 39.1724 81.8896 39.0381C81.7837 38.9037 81.7271 38.7377 81.7291 38.5672V37.4124C81.7015 36.4098 81.3501 35.4425 80.7266 34.6523C80.3687 34.1862 79.8846 33.8302 79.3306 33.6258C78.7765 33.4214 78.1753 33.3769 77.5968 33.4975C75.5219 33.8902 75.1489 35.8938 75.0032 36.7253C74.9432 37.4304 74.9432 38.1393 75.0032 38.8444C74.9868 38.9384 74.9443 39.0259 74.8804 39.0973C74.8166 39.1687 74.734 39.2211 74.6419 39.2486H62.4957C62.3723 39.2317 62.2576 39.176 62.1684 39.0898C62.0793 39.0035 62.0204 38.8912 62.0003 38.7693C62.0003 38.7693 62.0819 36.887 61.7206 36.4019C61.5467 35.6351 61.1341 34.9418 60.5413 34.4197C59.9484 33.8975 59.205 33.573 58.416 33.4917C58.416 33.4917 56.0846 33.2261 55.4202 36.2056C55.2795 36.7719 55.244 37.3589 55.3153 37.9379L54.4003 37.2276C54.4003 37.2276 54.8024 32.7584 58.3518 32.8508C61.9013 32.9432 62.6531 36.4712 62.8921 37.7011L62.9387 38.4229H74.1523C74.1523 38.4229 73.6394 34.2424 76.4836 33.0529C77.2441 32.7397 78.0866 32.6789 78.8849 32.8797C81.9389 33.6419 82.8597 37.1583 82.8947 39.3063Z" fill="url(#paint14_linear)"></path><path d="M78.9024 25.9392L78.1622 25.893L75.7842 25.8468H72.5262H76.8275L79.2054 25.893L79.9456 25.9392L80.7091 26.0316C84.0138 26.4993 88.8279 29.5654 88.8279 29.5654H87.7847C87.738 29.5654 82.9589 26.4993 79.6717 26.0374L78.9024 25.9392Z" fill="#191919"></path><path d="M73.0684 26.2568L76.1107 26.2048H78.7334L79.7359 26.2626L80.4528 26.3376C83.7399 26.7996 87.7381 29.5192 87.7847 29.5481H77.3638L73.0684 26.2568Z" fill="#0F0F0F"></path><path d="M58.375 29.5537C59.2959 28.8088 61.2425 27.4519 61.5631 27.2787C62.6884 26.6405 63.9561 26.2893 65.2524 26.2567H71.9957L76.0755 29.5652C76.0755 29.5652 70.5853 29.6057 65.4738 29.6057H65.299C62.4956 29.5999 59.9312 29.6057 58.375 29.5537Z" fill="#0F0F0F"></path><path d="M72.0309 29.7211L73.7793 29.8771C73.8829 29.8799 73.9858 29.861 74.0815 29.8216C74.1771 29.7822 74.2633 29.7232 74.3343 29.6485C74.4053 29.5738 74.4595 29.4851 74.4935 29.3881C74.5274 29.2912 74.5402 29.1882 74.5312 29.086V29.086C74.5347 28.9832 74.5164 28.8809 74.4774 28.7856C74.4384 28.6903 74.3796 28.6042 74.3049 28.5329C74.2302 28.4615 74.1411 28.4066 74.0435 28.3716C73.946 28.3365 73.842 28.3222 73.7385 28.3296L72.0017 28.5663C71.8713 28.5968 71.7555 28.6709 71.6738 28.776C71.592 28.8812 71.5494 29.011 71.5529 29.1437C71.5507 29.2805 71.5975 29.4135 71.685 29.5193C71.7725 29.625 71.8951 29.6966 72.0309 29.7211Z" fill="url(#paint15_linear)"></path><path d="M74.7351 30.1717L73.8958 29.5365C73.8746 29.5092 73.863 29.4757 73.863 29.4412C73.863 29.4067 73.8746 29.3732 73.8958 29.346V29.346C73.9112 29.3114 73.9382 29.2833 73.9723 29.2664C74.0063 29.2495 74.0453 29.245 74.0823 29.2536L75.0615 29.6289C75.0974 29.6463 75.1292 29.671 75.1549 29.7014C75.1806 29.7318 75.1995 29.7672 75.2105 29.8053C75.2215 29.8434 75.2243 29.8834 75.2187 29.9226C75.2131 29.9618 75.1992 29.9995 75.178 30.0331V30.0331C75.164 30.0759 75.1398 30.1147 75.1075 30.1464C75.0752 30.178 75.0358 30.2016 74.9925 30.2152C74.9492 30.2287 74.9033 30.2318 74.8585 30.2243C74.8137 30.2167 74.7714 30.1987 74.7351 30.1717Z" fill="url(#paint16_linear)"></path><path opacity="0.1" d="M81.3853 32.0309C81.3853 32.0309 64.524 31.0089 59.8206 31.4188L60.1936 32.1579L81.3853 32.0309Z" fill="url(#paint17_linear)"></path><path style="mix-blend-mode:lighten" opacity="0.51" d="M74.1523 37.5972L62.9562 38.4056L74.1931 38.4114L74.1523 37.5972Z" fill="url(#paint18_linear)"></path><defs><radialGradient id="paint0_radial" cx="0" cy="0" r="1" gradientUnits="userSpaceOnUse" gradientTransform="translate(28.3641 33.9998) scale(22.8632)"><stop stop-color="#B3E751"></stop><stop offset="1" stop-color="#6FC073"></stop></radialGradient><linearGradient id="paint1_linear" x1="38.6367" y1="31.1334" x2="0.40317" y2="33.0909" gradientUnits="userSpaceOnUse"><stop offset="0.2" stop-color="#7350FC"></stop><stop offset="1" stop-color="#9E86FD"></stop></linearGradient><linearGradient id="paint2_linear" x1="20.0616" y1="28.1163" x2="3.07976" y2="28.1163" gradientUnits="userSpaceOnUse"><stop stop-color="#231F20"></stop><stop offset="0.57" stop-color="#323031"></stop><stop offset="1" stop-color="#404041"></stop></linearGradient><linearGradient id="paint3_linear" x1="27.0516" y1="34.5817" x2="0" y2="34.5817" gradientUnits="userSpaceOnUse"><stop offset="0.11" stop-color="#7350FC"></stop><stop offset="0.26" stop-color="#7451FC" stop-opacity="0.99"></stop><stop offset="0.38" stop-color="#7553FC" stop-opacity="0.95"></stop><stop offset="0.49" stop-color="#7856FC" stop-opacity="0.88"></stop><stop offset="0.59" stop-color="#7C5BFC" stop-opacity="0.79"></stop><stop offset="0.68" stop-color="#8162FC" stop-opacity="0.67"></stop><stop offset="0.77" stop-color="#8769FC" stop-opacity="0.53"></stop><stop offset="0.86" stop-color="#8F73FD" stop-opacity="0.36"></stop><stop offset="0.94" stop-color="#977DFD" stop-opacity="0.16"></stop><stop offset="1" stop-color="#9E86FD" stop-opacity="0"></stop></linearGradient><linearGradient id="paint4_linear" x1="18.0538" y1="33.9501" x2="7.58256" y2="34.1423" gradientUnits="userSpaceOnUse"><stop stop-color="white" stop-opacity="0"></stop><stop offset="0.2" stop-color="#E6DFFE" stop-opacity="0.26"></stop><stop offset="0.41" stop-color="#CCC0FE" stop-opacity="0.52"></stop><stop offset="0.61" stop-color="#B8A7FE" stop-opacity="0.73"></stop><stop offset="0.78" stop-color="#AA95FD" stop-opacity="0.88"></stop><stop offset="0.91" stop-color="#A18AFD" stop-opacity="0.97"></stop><stop offset="1" stop-color="#9E86FD"></stop></linearGradient><linearGradient id="paint5_linear" x1="12931.7" y1="92.4291" x2="13279.4" y2="92.4291" gradientUnits="userSpaceOnUse"><stop offset="0.2" stop-color="#7350FC"></stop><stop offset="1" stop-color="#9E86FD"></stop></linearGradient><linearGradient id="paint6_linear" x1="17.6135" y1="36.311" x2="8.68048" y2="36.311" gradientUnits="userSpaceOnUse"><stop stop-color="#7350FC"></stop><stop offset="0.04" stop-color="#7958FC"></stop><stop offset="0.07" stop-color="#7F5FFC"></stop><stop offset="0.19" stop-color="#8D70FD"></stop><stop offset="0.34" stop-color="#977DFD"></stop><stop offset="0.53" stop-color="#9C84FD"></stop><stop offset="1" stop-color="#9E86FD"></stop></linearGradient><linearGradient id="paint7_linear" x1="38.253" y1="35.7086" x2="27.0369" y2="35.7086" gradientUnits="userSpaceOnUse"><stop stop-color="#7350FC" stop-opacity="0"></stop><stop offset="0.04" stop-color="#7857FC" stop-opacity="0.13"></stop><stop offset="0.1" stop-color="#8061FC" stop-opacity="0.31"></stop><stop offset="0.16" stop-color="#876AFC" stop-opacity="0.47"></stop><stop offset="0.23" stop-color="#8E71FD" stop-opacity="0.62"></stop><stop offset="0.31" stop-color="#9378FD" stop-opacity="0.74"></stop><stop offset="0.39" stop-color="#977DFD" stop-opacity="0.83"></stop><stop offset="0.48" stop-color="#9A81FD" stop-opacity="0.91"></stop><stop offset="0.59" stop-color="#9C84FD" stop-opacity="0.96"></stop><stop offset="0.73" stop-color="#9E86FD" stop-opacity="0.99"></stop><stop offset="1" stop-color="#9E86FD"></stop></linearGradient><linearGradient id="paint8_linear" x1="42.0855" y1="34" x2="110.085" y2="34" gradientUnits="userSpaceOnUse"><stop stop-color="#9E86FD"></stop><stop offset="1" stop-color="#6748E3"></stop></linearGradient><linearGradient id="paint9_linear" x1="85.7037" y1="35.3742" x2="53.8871" y2="35.3742" gradientUnits="userSpaceOnUse"><stop offset="0.2" stop-color="#929497"></stop><stop offset="0.35" stop-color="#A4A6A9"></stop><stop offset="0.66" stop-color="#D4D5D6"></stop><stop offset="0.9" stop-color="white"></stop></linearGradient><linearGradient id="paint10_linear" x1="53.4331" y1="32.5957" x2="98.5381" y2="32.5957" gradientUnits="userSpaceOnUse"><stop offset="0.02" stop-color="white"></stop><stop offset="1" stop-color="#D0D2D3"></stop></linearGradient><linearGradient id="paint11_linear" x1="87.5692" y1="35.328" x2="53.7594" y2="35.328" gradientUnits="userSpaceOnUse"><stop offset="0.14" stop-color="#929497"></stop><stop offset="0.31" stop-color="#96989B"></stop><stop offset="0.48" stop-color="#A1A3A5"></stop><stop offset="0.64" stop-color="#B4B6B8"></stop><stop offset="0.79" stop-color="#CFD0D1"></stop><stop offset="0.95" stop-color="#F1F1F2"></stop><stop offset="1" stop-color="white"></stop></linearGradient><linearGradient id="paint12_linear" x1="13759.7" y1="129.835" x2="14100.8" y2="129.835" gradientUnits="userSpaceOnUse"><stop offset="0.14" stop-color="#929497"></stop><stop offset="0.31" stop-color="#96989B"></stop><stop offset="0.48" stop-color="#A1A3A5"></stop><stop offset="0.64" stop-color="#B4B6B8"></stop><stop offset="0.79" stop-color="#CFD0D1"></stop><stop offset="0.95" stop-color="#F1F1F2"></stop><stop offset="1" stop-color="white"></stop></linearGradient><linearGradient id="paint13_linear" x1="98.5379" y1="37.3491" x2="87.4875" y2="37.3491" gradientUnits="userSpaceOnUse"><stop stop-color="white" stop-opacity="0"></stop><stop offset="0.04" stop-color="white" stop-opacity="0.13"></stop><stop offset="0.1" stop-color="white" stop-opacity="0.31"></stop><stop offset="0.16" stop-color="white" stop-opacity="0.48"></stop><stop offset="0.23" stop-color="white" stop-opacity="0.62"></stop><stop offset="0.31" stop-color="white" stop-opacity="0.74"></stop><stop offset="0.39" stop-color="white" stop-opacity="0.83"></stop><stop offset="0.48" stop-color="white" stop-opacity="0.91"></stop><stop offset="0.59" stop-color="white" stop-opacity="0.96"></stop><stop offset="0.73" stop-color="white" stop-opacity="0.99"></stop><stop offset="1" stop-color="white"></stop></linearGradient><linearGradient id="paint14_linear" x1="143.018" y1="267.846" x2="1534.69" y2="267.846" gradientUnits="userSpaceOnUse"><stop offset="0.14" stop-color="#929497"></stop><stop offset="0.31" stop-color="#96989B"></stop><stop offset="0.48" stop-color="#A1A3A5"></stop><stop offset="0.64" stop-color="#B4B6B8"></stop><stop offset="0.79" stop-color="#CFD0D1"></stop><stop offset="0.95" stop-color="#F1F1F2"></stop><stop offset="1" stop-color="white"></stop></linearGradient><linearGradient id="paint15_linear" x1="71.5529" y1="29.1149" x2="74.502" y2="29.1149" gradientUnits="userSpaceOnUse"><stop offset="0.02" stop-color="white"></stop><stop offset="0.09" stop-color="#F0F0F0"></stop><stop offset="0.26" stop-color="#CECFD0"></stop><stop offset="0.43" stop-color="#B4B5B7"></stop><stop offset="0.61" stop-color="#A1A3A5"></stop><stop offset="0.8" stop-color="#96989B"></stop><stop offset="1" stop-color="#929497"></stop></linearGradient><linearGradient id="paint16_linear" x1="123.434" y1="53.7431" x2="126.558" y2="53.7431" gradientUnits="userSpaceOnUse"><stop offset="0.02" stop-color="white"></stop><stop offset="0.09" stop-color="#F0F0F0"></stop><stop offset="0.26" stop-color="#CECFD0"></stop><stop offset="0.43" stop-color="#B4B5B7"></stop><stop offset="0.61" stop-color="#A1A3A5"></stop><stop offset="0.8" stop-color="#96989B"></stop><stop offset="1" stop-color="#929497"></stop></linearGradient><linearGradient id="paint17_linear" x1="81.3794" y1="31.7595" x2="59.8439" y2="31.7595" gradientUnits="userSpaceOnUse"><stop offset="0.02" stop-color="white"></stop><stop offset="0.11" stop-color="#F0F1F1"></stop><stop offset="0.38" stop-color="#C8C9CA"></stop><stop offset="0.63" stop-color="#AAACAE"></stop><stop offset="0.85" stop-color="#989A9D"></stop><stop offset="1" stop-color="#929497"></stop></linearGradient><linearGradient id="paint18_linear" x1="-11135.4" y1="59.0962" x2="-11351.9" y2="59.0962" gradientUnits="userSpaceOnUse"><stop stop-color="white" stop-opacity="0"></stop><stop offset="0.04" stop-color="white" stop-opacity="0.13"></stop><stop offset="0.1" stop-color="white" stop-opacity="0.31"></stop><stop offset="0.16" stop-color="white" stop-opacity="0.48"></stop><stop offset="0.23" stop-color="white" stop-opacity="0.62"></stop><stop offset="0.31" stop-color="white" stop-opacity="0.74"></stop><stop offset="0.39" stop-color="white" stop-opacity="0.83"></stop><stop offset="0.48" stop-color="white" stop-opacity="0.91"></stop><stop offset="0.59" stop-color="white" stop-opacity="0.96"></stop><stop offset="0.73" stop-color="white" stop-opacity="0.99"></stop><stop offset="1" stop-color="white"></stop></linearGradient></defs></svg>