<svg xmlns="http://www.w3.org/2000/svg" width="92" height="76" viewBox="0 0 92 76" fill="none"><path d="M91.7059 59.4767C91.7059 68.6026 84.3083 76.0001 75.1816 76.0001H16.5239C7.39803 76.0001 6.10352e-05 68.6026 6.10352e-05 59.4767C6.10352e-05 59.4767 3.83574 42.4803 4.95703 35.8323C6.47518 26.8334 12.3546 19.3085 21.4808 19.3085H69.3984C78.5243 19.3085 84.1597 26.878 85.9227 35.8323C87.2445 42.5526 91.7059 59.4767 91.7059 59.4767Z" fill="url(#paint0_linear)"></path><path d="M55.6406 76H16.9052C15.9251 76 14.9637 75.9228 14.0248 75.7734C14.7467 73.6053 15.1951 71.1968 15.4858 69.4733C16.1292 65.2277 15.7393 60.5966 19.7309 57.8978C21.5723 56.5508 23.6905 55.9065 25.8902 55.598C27.2017 55.4165 28.5391 55.3537 29.8641 55.3355C30.3489 55.3264 30.8298 55.3264 31.3064 55.3264C31.6825 55.3264 32.059 55.322 32.4398 55.3125C32.5542 55.3173 32.6669 55.3125 32.7847 55.3086C33.1612 55.3034 33.5377 55.2952 33.9185 55.2856C34.0589 55.2856 34.2045 55.2809 34.3449 55.2809C35.2569 55.2583 36.1728 55.2397 37.0935 55.244C38.3179 55.2531 39.5393 55.2991 40.7494 55.4351C41.5522 55.5257 42.3507 55.6526 43.1354 55.8389C48.542 56.9957 50.7287 62.1433 52.2698 66.9014C53.3365 70.0131 54.4019 73.0061 55.6406 76Z" fill="url(#paint1_radial)"></path><path d="M43.898 45.3904C43.898 51.2126 39.1784 55.9313 33.3567 55.9313C27.5353 55.9313 22.8158 51.2122 22.8158 45.3904V38.4513C22.8158 32.6295 27.5358 27.9104 33.3567 27.9104C39.1788 27.9104 43.898 32.6299 43.898 38.4513V45.3904V45.3904Z" fill="url(#paint2_radial)"></path><path d="M45.0105 47.2708C45.0105 46.9182 44.8419 46.6075 44.5842 46.4048C44.7211 46.2055 44.8008 45.9654 44.8008 45.7068C44.8008 45.2817 44.5859 44.9074 44.2605 44.6843C44.5062 44.4811 44.666 44.1782 44.666 43.8346C44.666 43.2237 44.1704 42.7285 43.5599 42.7285C42.9499 42.7285 42.4542 43.2237 42.4542 43.8346C42.4542 44.1782 42.6145 44.4811 42.8606 44.6843C42.5348 44.9078 42.3204 45.2817 42.3204 45.7068C42.3204 45.9247 42.3819 46.1279 42.4811 46.3055C42.1388 46.4944 41.9044 46.8536 41.9044 47.2713C41.9044 47.4853 41.9677 47.6833 42.0738 47.8527C41.8429 48.0559 41.6939 48.3501 41.6939 48.6815C41.6939 48.7769 41.709 48.8687 41.732 48.9567C41.4993 49.1594 41.349 49.4545 41.349 49.7872C41.349 49.8574 41.3568 49.9241 41.3689 49.9904C40.8096 50.0459 40.3711 50.5117 40.3711 51.0853C40.3711 51.2569 40.4136 51.418 40.4838 51.5632C40.4547 51.6347 40.4339 51.7092 40.4157 51.785C40.3377 51.7971 40.2645 51.8201 40.193 51.847C40.0492 51.7863 39.8924 51.7543 39.7299 51.7391C39.6796 50.5147 39.3161 49.3046 38.4409 48.416C37.09 47.0447 34.2855 47.5949 32.5897 47.6339C30.9827 47.6703 28.5257 47.7873 27.6483 49.4398C27.3884 49.9267 27.1943 50.5524 27.1059 51.2014C27.0119 51.1836 26.9161 51.1728 26.8165 51.1728C26.5543 51.1728 26.3113 51.2439 26.0947 51.3591C26.1185 51.272 26.1336 51.181 26.1336 51.0857C26.1336 50.5121 25.6947 50.0463 25.1354 49.9909C25.1484 49.925 25.1562 49.8579 25.1562 49.7877C25.1562 49.4549 25.0054 49.1599 24.7732 48.9571C24.7962 48.8692 24.8122 48.7773 24.8122 48.682C24.8122 48.3505 24.6627 48.0563 24.4309 47.8531C24.5362 47.6837 24.6003 47.4857 24.6003 47.2717C24.6003 46.854 24.3651 46.4949 24.0241 46.306C24.1233 46.1283 24.184 45.9251 24.184 45.7072C24.184 45.2822 23.9699 44.9078 23.6441 44.6847C23.8898 44.4815 24.0505 44.1786 24.0505 43.8351C24.0505 43.2242 23.554 42.729 22.944 42.729C22.3339 42.729 21.8383 43.2242 21.8383 43.8351C21.8383 44.1786 21.9981 44.4815 22.2442 44.6847C21.9184 44.9083 21.7048 45.2822 21.7048 45.7072C21.7048 45.9663 21.7841 46.2059 21.9202 46.4052C21.6624 46.608 21.4943 46.9186 21.4943 47.2713C21.4943 47.6842 21.7239 48.0403 22.0592 48.2301C21.8452 48.432 21.7105 48.7158 21.7105 49.0329C21.7105 49.4073 21.8976 49.7365 22.1819 49.9367C22.1429 50.0507 22.1169 50.1707 22.1169 50.2976C22.1169 50.8028 22.4578 51.2244 22.921 51.3565C22.9968 51.5203 23.1125 51.6615 23.255 51.7707C23.2269 51.8847 23.207 52.0021 23.207 52.1251C23.207 52.8764 23.7763 53.4882 24.505 53.5714C24.479 53.6662 24.4608 53.7633 24.4608 53.8664C24.4608 54.4773 24.9565 54.9721 25.5669 54.9721C25.5721 54.9721 25.576 54.9712 25.5821 54.9712C25.6488 55.479 26.057 55.8741 26.5717 55.9214C26.696 56.3954 27.1237 56.7459 27.6366 56.7459C27.8338 56.7459 28.0162 56.69 28.1773 56.599C28.3637 56.946 28.7259 57.1839 29.1461 57.1839C29.322 57.1839 29.4862 57.1388 29.6335 57.0661C29.8272 57.3854 30.1751 57.6011 30.5763 57.6011C30.9177 57.6011 31.2176 57.4434 31.4221 57.2008C31.5698 57.6362 31.9784 57.9512 32.4641 57.9512C32.773 57.9512 33.0516 57.8234 33.2526 57.6185C33.4532 57.8234 33.7318 57.9512 34.0411 57.9512C34.5264 57.9512 34.935 57.6358 35.0836 57.2008C35.2859 57.4434 35.5879 57.6011 35.9289 57.6011C36.3292 57.6011 36.678 57.3854 36.8712 57.0661C37.0181 57.1393 37.1823 57.1839 37.3582 57.1839C37.7793 57.1839 38.1411 56.946 38.3278 56.599C38.4881 56.69 38.6705 56.7459 38.8681 56.7459C39.3807 56.7459 39.8079 56.3949 39.9339 55.9214C40.4474 55.8741 40.8564 55.479 40.9239 54.9712C40.9283 54.9712 40.933 54.9721 40.9378 54.9721C41.5483 54.9721 42.0435 54.4773 42.0435 53.8664C42.0435 53.7637 42.0249 53.6662 41.9984 53.5714C42.7285 53.4886 43.2978 52.8764 43.2978 52.1251C43.2978 52.0021 43.2783 51.8842 43.2497 51.7707C43.3918 51.6615 43.5079 51.5203 43.5842 51.3565C44.0465 51.2239 44.3875 50.8028 44.3875 50.2976C44.3875 50.1707 44.3619 50.0507 44.3225 49.9367C44.6067 49.7365 44.7943 49.4073 44.7943 49.0329C44.7943 48.7162 44.6587 48.432 44.4451 48.2301C44.7813 48.0403 45.0105 47.6842 45.0105 47.2708ZM36.2304 53.1676C35.951 52.8894 35.5658 52.7174 35.1412 52.7174C34.5108 52.7174 33.9709 53.0952 33.73 53.6363C33.4892 53.0952 32.9497 52.7174 32.3202 52.7174C31.7479 52.7174 31.2544 53.0315 30.9866 53.4934C30.8354 52.7984 30.2184 52.2776 29.4784 52.2776C29.1925 52.2776 28.9299 52.3626 28.7012 52.4982C28.5296 51.7153 28.7176 50.6239 29.1314 50.1074C29.936 49.1053 31.822 49.2396 32.9614 49.2136C34.3253 49.1824 35.9154 48.8939 37.2027 49.4662C38.1381 49.8821 38.2091 51.4423 38.135 52.5073C37.9583 52.4345 37.7668 52.3898 37.564 52.3898C36.9917 52.3903 36.4973 52.7048 36.2304 53.1676Z" fill="url(#paint3_linear)"></path><path d="M22.2955 46.2513C21.6703 46.6092 21.6239 47.8609 22.302 48.2101C22.5281 48.3275 22.7292 47.9848 22.5017 47.8674C22.0931 47.656 22.1226 46.8081 22.4965 46.5945C22.7183 46.468 22.5186 46.1244 22.2955 46.2513Z" fill="#442D70"></path><path d="M22.4744 49.9731C22.3401 50.574 22.9904 51.4219 23.6195 51.3894C23.8747 51.3764 23.876 50.9787 23.6195 50.9921C23.2616 51.0107 22.7785 50.4362 22.8583 50.0784C22.9137 49.8284 22.5303 49.7227 22.4744 49.9731Z" fill="#442D70"></path><path d="M24.7187 53.733C24.6689 54.1706 24.9418 54.6576 25.3469 54.8322C25.58 54.9319 25.7824 54.59 25.5475 54.4886C25.2542 54.3626 25.08 54.0493 25.1164 53.733C25.1455 53.4791 24.7482 53.4817 24.7187 53.733Z" fill="#442D70"></path><path d="M28.6466 53.3218C29.056 53.0566 29.6136 53.0666 30.0486 53.2767C30.3675 53.4305 30.5148 53.8243 30.6517 54.1246C30.7583 54.3573 31.1006 54.1554 30.9953 53.9244C30.7995 53.4985 30.5772 53.0432 30.1084 52.8681C29.569 52.6679 28.939 52.6589 28.4455 52.979C28.2311 53.1181 28.4304 53.4621 28.6466 53.3218Z" fill="#442D70"></path><path d="M42.3976 47.8475C41.8274 48 41.8383 49.0169 42.022 49.4367C42.1247 49.6711 42.4669 49.4688 42.3655 49.2366C42.2945 49.0737 42.3084 48.8709 42.3227 48.698C42.3313 48.588 42.3686 48.2665 42.5029 48.2305C42.7507 48.1647 42.6459 47.7812 42.3976 47.8475Z" fill="#442D70"></path><path d="M43.6749 43.3367C43.9218 43.4598 44.1835 44.0468 43.8867 44.2388C43.6714 44.3774 43.8711 44.721 44.0869 44.5815C44.6358 44.2271 44.4092 43.2596 43.8755 42.994C43.6458 42.8809 43.4448 43.2236 43.6749 43.3367Z" fill="#442D70"></path><path d="M44.1907 46.8816C44.5148 47.142 44.5494 47.6082 44.2431 47.8985C44.0559 48.0748 44.3384 48.3556 44.5247 48.1792C44.974 47.7533 44.9606 46.9938 44.4715 46.6004C44.2734 46.4414 43.9905 46.7209 44.1907 46.8816Z" fill="#442D70"></path><path d="M42.5167 51.4558C42.5899 52.055 42.3157 52.6729 41.6562 52.7405C41.4041 52.7669 41.4019 53.1638 41.6562 53.1378C42.5189 53.0494 43.0171 52.2951 42.9136 51.4558C42.8828 51.2046 42.4859 51.2015 42.5167 51.4558Z" fill="#442D70"></path><path d="M37.087 54.7336C37.2854 54.328 38.2157 53.8168 38.6017 54.218C38.7798 54.4026 39.0614 54.1209 38.8829 53.9368C38.3114 53.3445 37.058 53.8913 36.7434 54.5334C36.6308 54.7622 36.9735 54.9636 37.087 54.7336Z" fill="#442D70"></path><path d="M34.9739 56.9723C35.5077 57.5411 36.7768 57.6369 36.8491 56.646C36.8673 56.3904 36.4709 56.3921 36.4514 56.646C36.4072 57.2599 35.5229 56.977 35.2547 56.6911C35.0788 56.5043 34.7989 56.7855 34.9739 56.9723Z" fill="#442D70"></path><path d="M29.5704 56.4694C30.1033 57.0148 30.8606 56.9655 31.5062 56.6591C31.738 56.55 31.5361 56.2072 31.3065 56.3164C30.8217 56.5456 30.2536 56.5998 29.8524 56.1882C29.6726 56.0049 29.3932 56.2857 29.5704 56.4694Z" fill="#442D70"></path><path d="M32.7379 55.3566C33.0901 54.9498 33.6781 54.9801 34.0199 55.3835C34.1859 55.5789 34.4658 55.2969 34.3007 55.1032C33.8267 54.5439 32.9415 54.5161 32.4576 55.0763C32.2908 55.2683 32.5707 55.5507 32.7379 55.3566Z" fill="#442D70"></path><path d="M24.6265 50.6406C25.0909 50.7082 25.5719 51.2437 25.5667 51.7203C25.5641 51.9764 25.9618 51.9764 25.9644 51.7203C25.9705 51.0834 25.3669 50.3495 24.7318 50.2572C24.4818 50.2208 24.3735 50.6038 24.6265 50.6406Z" fill="#442D70"></path><path d="M26.8383 56.0582C26.9921 56.3567 27.3435 56.4035 27.6454 56.3689C27.8967 56.3394 27.8993 55.9425 27.6454 55.9711C27.4921 55.9889 27.265 56.0192 27.181 55.8576C27.064 55.6297 26.7209 55.8312 26.8383 56.0582Z" fill="#442D70"></path><path d="M39.3768 51.5438C39.0891 49.5646 38.2057 48.1279 36.1854 47.8051C34.9155 47.6019 33.4442 47.9043 32.1721 47.9737C29.7003 48.1093 27.8195 48.2419 27.2515 51.1724C27.2325 51.2721 27.3854 51.3146 27.4045 51.2145C27.9712 48.296 29.8108 48.2627 32.1725 48.1331C33.2548 48.0737 34.3367 48.0148 35.4185 47.9555C37.7313 47.8285 38.915 49.4598 39.2243 51.5866C39.2377 51.6876 39.3916 51.6443 39.3768 51.5438Z" fill="#442D70"></path><path d="M67.3828 41.9091C78.1758 41.9091 86.9252 33.1597 86.9252 22.3668C86.9252 11.5739 78.1758 2.82446 67.3828 2.82446C56.5899 2.82446 47.8405 11.5739 47.8405 22.3668C47.8405 33.1597 56.5899 41.9091 67.3828 41.9091Z" fill="white"></path><path d="M66.8769 45.3722C54.3673 45.3722 44.1899 35.1953 44.1899 22.6861C44.1899 10.1765 54.3673 0 66.8769 0C79.3856 0 89.563 10.1769 89.563 22.6861C89.563 35.1948 79.3856 45.3722 66.8769 45.3722ZM66.8769 4.98556C57.1168 4.98556 49.1764 12.926 49.1764 22.6861C49.1764 32.4462 57.1164 40.3866 66.8769 40.3866C76.6362 40.3866 84.5766 32.4462 84.5766 22.6861C84.5766 12.926 76.6362 4.98556 66.8769 4.98556Z" fill="url(#paint4_radial)"></path><path d="M88.3251 22.1692C88.1912 22.1692 88.0829 22.0609 88.0829 21.927C88.0829 10.4529 78.7474 1.11781 67.2737 1.11781C67.139 1.11781 67.0306 1.0095 67.0306 0.87562C67.0306 0.741741 67.139 0.633423 67.2737 0.633423C79.0143 0.633423 88.5664 10.1856 88.5664 21.927C88.566 22.0609 88.4585 22.1692 88.3251 22.1692Z" fill="#C3E29A"></path><path d="M66.8768 25.7879C66.463 25.7879 66.1277 25.4534 66.1277 25.0401V6.9037C66.1277 6.49036 66.4626 6.15588 66.8768 6.15588C67.2897 6.15588 67.6242 6.49036 67.6242 6.9037V25.0401C67.6242 25.453 67.2897 25.7879 66.8768 25.7879Z" fill="#442D70"></path><path d="M66.3257 22.4106C66.6056 22.1064 67.0779 22.0873 67.3825 22.3668L74.5153 28.9333C74.819 29.2132 74.8385 29.6864 74.5586 29.9901C74.2792 30.2938 73.8065 30.3133 73.5019 30.0338L66.3699 23.4673C66.0662 23.1878 66.0467 22.7147 66.3257 22.4106Z" fill="#442D70"></path><path d="M66.8765 24.9836C68.1456 24.9836 69.1745 23.9548 69.1745 22.6856C69.1745 21.4164 68.1456 20.3876 66.8765 20.3876C65.6073 20.3876 64.5784 21.4164 64.5784 22.6856C64.5784 23.9548 65.6073 24.9836 66.8765 24.9836Z" fill="url(#paint5_linear)"></path><defs><linearGradient id="paint0_linear" x1="83.9154" y1="28.6494" x2="5.30898" y2="70.8285" gradientUnits="userSpaceOnUse"><stop stop-color="#9E86FD"></stop><stop offset="1" stop-color="#6748E3"></stop></linearGradient><radialGradient id="paint1_radial" cx="0" cy="0" r="1" gradientUnits="userSpaceOnUse" gradientTransform="translate(34.8327 65.622) scale(16.442)"><stop stop-color="#B3E751"></stop><stop offset="1" stop-color="#6FC073"></stop></radialGradient><radialGradient id="paint2_radial" cx="0" cy="0" r="1" gradientUnits="userSpaceOnUse" gradientTransform="translate(37.2951 34.3319) scale(14.0915)"><stop stop-color="#B35951"></stop><stop offset="1" stop-color="#541E00"></stop></radialGradient><linearGradient id="paint3_linear" x1="22.7546" y1="50.3399" x2="43.8401" y2="50.3399" gradientUnits="userSpaceOnUse"><stop offset="0.0054" stop-color="#311F45"></stop><stop offset="0.9946" stop-color="#1A1F1D"></stop></linearGradient><radialGradient id="paint4_radial" cx="0" cy="0" r="1" gradientUnits="userSpaceOnUse" gradientTransform="translate(66.8764 22.6858) scale(22.6864)"><stop stop-color="#B3E751"></stop><stop offset="0.7527" stop-color="#72B776"></stop><stop offset="0.8172" stop-color="#59A484"></stop><stop offset="0.8656" stop-color="#64B17C"></stop><stop offset="0.9516" stop-color="#6AB977"></stop><stop offset="1" stop-color="#B3E751"></stop></radialGradient><linearGradient id="paint5_linear" x1="64.5785" y1="22.6855" x2="69.1743" y2="22.6855" gradientUnits="userSpaceOnUse"><stop stop-color="#9E86FD"></stop><stop offset="1" stop-color="#6748E3"></stop></linearGradient></defs></svg>